<?xml version="1.0" standalone="no"?><!DOCTYPE svg PUBLIC "-//W3C//DTD SVG 1.1//EN" "http://www.w3.org/Graphics/SVG/1.1/DTD/svg11.dtd" ><svg xmlns="http://www.w3.org/2000/svg"><metadata></metadata><defs><font id="LaskoDzurovski,Totemt.f.: SkolaSans Light: 2009" horiz-adv-x="1438"><font-face font-family="SkolaSans" font-weight="900" font-stretch="normal" units-per-em="1000" panose-1="2 0 5 6 0 0 0 2 0 4" ascent="750" descent="-250" x-height="4" bbox="-150 -215 1400 1001" underline-thickness="50" underline-position="-75" unicode-range="U+0000-fb02" /><missing-glyph horiz-adv-x="555" d="M40 0 l475 0 l0 748 l-475 0 l0 -748 ZM80 708 l395 0 l0 -668 l-395 0 l0 668 ZM257 555 q23 0 37 -14 q15 -15 15 -49 q-2 -34 -36 -63 q-33 -29 -73 -47 l17 -113 l81 0 l14 73 q51 25 88 69 q37 43 39 108 q-3 74 -52 107 q-49 34 -115 33 q-41 0 -80 -11 q-38 -11 -77 -36 l46 -93 q27 18 50 27 q23 9 46 9 l0 0 ZM188 158 q1 -29 20 -49 q20 -19 49 -20 q30 1 49 20 q19 20 20 49 q-1 29 -20 49 q-19 19 -49 20 q-29 -1 -49 -20 q-19 -20 -20 -49 l0 0 Z" /><glyph glyph-name="" unicode="" d="" /><glyph glyph-name="" unicode=" " d="" /><glyph glyph-name="" unicode="!" d="M262 748 l-160 0 l25 -514 l110 0 l25 514 ZM90 86 q1 -39 27 -65 q26 -26 65 -27 q39 1 65 27 q26 26 27 65 q-1 39 -27 65 q-26 26 -65 27 q-39 -1 -65 -27 q-26 -26 -27 -65 l0 0 Z" /><glyph glyph-name="" unicode="&quot;" d="M292 466 l126 0 l0 282 l-126 0 l0 -282 ZM80 466 l126 0 l0 282 l-126 0 l0 -282 Z" /><glyph glyph-name="" unicode="#" d="M96 0 l97 0 l28 201 l99 0 l-28 -201 l97 0 l28 201 l96 0 l0 90 l-84 0 l23 166 l96 0 l0 90 l-84 0 l28 201 l-97 0 l-28 -201 l-99 0 l28 201 l-97 0 l-28 -201 l-96 0 l0 -90 l84 0 l-23 -166 l-96 0 l0 -90 l84 0 l-28 -201 ZM332 291 l-99 0 l23 166 l99 0 l-23 -166 Z" /><glyph glyph-name="" unicode="$" d="M394 -109 l0 111 q98 19 152 78 q54 59 55 152 q-22 161 -178 205 q-156 44 -178 113 q0 24 21 40 q21 16 61 17 q45 -1 91 -24 q47 -23 89 -60 l74 146 q-45 31 -90 52 q-46 20 -97 28 l0 108 l-128 0 l0 -109 q-101 -17 -150 -73 q-49 -56 -49 -135 q21 -162 168 -211 q147 -49 168 -112 q0 -36 -24 -56 q-24 -20 -67 -20 q-45 1 -91 24 q-47 23 -89 60 l-74 -146 q48 -34 99 -56 q51 -21 109 -27 l0 -105 l128 0 Z" /><glyph glyph-name="" unicode="%" d="M543 193 q2 -85 58 -141 q55 -56 139 -58 q84 2 139 58 q56 56 58 141 q-2 85 -58 140 q-55 56 -139 58 q-84 -2 -139 -58 q-56 -55 -58 -140 l0 0 ZM835 193 q-1 -41 -28 -69 q-26 -27 -67 -28 q-41 1 -67 28 q-27 28 -28 69 q1 41 28 68 q26 27 67 28 q41 -1 67 -28 q27 -27 28 -68 l0 0 ZM40 556 q2 -85 58 -140 q55 -56 139 -58 q84 2 139 58 q56 55 58 140 q-2 85 -58 140 q-55 56 -139 58 q-84 -2 -139 -58 q-56 -55 -58 -140 l0 0 ZM332 556 q-1 -41 -28 -68 q-26 -27 -67 -28 q-41 1 -67 28 q-27 27 -28 68 q1 41 28 68 q26 27 67 28 q41 -1 67 -28 q27 -27 28 -68 l0 0 ZM203 0 l97 -6 l469 754 l-107 6 l-459 -754 Z" /><glyph glyph-name="" unicode="&amp;" d="M752 365 l-115 79 l-128 -173 l-103 118 q59 32 100 80 q41 48 43 111 q-3 89 -62 132 q-60 42 -144 42 q-88 1 -153 -42 q-65 -43 -68 -138 q1 -41 23 -80 q22 -39 57 -76 q-65 -35 -108 -88 q-42 -54 -44 -122 q4 -107 78 -166 q73 -59 173 -60 q63 -1 114 19 q51 19 94 66 l64 -73 l177 6 l-147 167 l149 198 ZM341 634 q29 0 49 -17 q20 -16 21 -47 q-2 -30 -30 -54 q-28 -24 -54 -38 q-18 19 -36 42 q-18 22 -19 48 q1 30 20 48 q19 18 49 18 l0 0 ZM421 166 q-23 -27 -51 -39 q-29 -13 -63 -13 q-38 1 -67 27 q-29 26 -31 69 q0 40 20 65 q19 26 55 50 l137 -159 Z" /><glyph glyph-name="" unicode="&#39;" d="M80 466 l126 0 l0 282 l-126 0 l0 -282 Z" /><glyph glyph-name="" unicode="(" d="M168 806 q-45 -70 -85 -188 q-40 -118 -43 -292 q3 -174 43 -288 q40 -114 85 -183 l97 45 q-35 63 -65 166 q-30 103 -32 260 q2 158 32 265 q30 107 65 171 l-97 44 Z" /><glyph glyph-name="" unicode=")" d="M20 762 q35 -64 65 -171 q30 -107 32 -265 q-2 -157 -32 -260 q-30 -103 -65 -166 l97 -45 q45 69 85 183 q40 114 43 288 q-3 174 -43 292 q-40 118 -85 188 l-97 -44 Z" /><glyph glyph-name="" unicode="*" d="M285 754 l-102 0 l15 -140 l-126 57 l-32 -97 l137 -27 l-93 -103 l83 -61 l68 122 l69 -121 l82 61 l-95 103 l137 29 l-32 96 l-126 -58 l15 139 Z" /><glyph glyph-name="" unicode="+" d="M56 275 l211 0 l0 -211 l126 0 l0 211 l211 0 l0 126 l-211 0 l0 211 l-126 0 l0 -211 l-211 0 l0 -126 Z" /><glyph glyph-name="" unicode="," d="M60 91 q1 -37 25 -66 q23 -28 58 -30 l-66 -134 l76 -25 q42 53 70 122 q29 69 30 133 q-1 42 -28 70 q-27 28 -69 29 q-41 -1 -68 -29 q-27 -28 -28 -70 l0 0 Z" /><glyph glyph-name="" unicode="-" d="M40 229 l269 0 l0 126 l-269 0 l0 -126 Z" /><glyph glyph-name="" unicode="." d="M60 91 q1 -41 28 -69 q28 -27 69 -28 q42 1 69 28 q27 28 28 69 q-1 42 -28 70 q-27 28 -69 29 q-41 -1 -69 -29 q-27 -28 -28 -70 l0 0 Z" /><glyph glyph-name="" unicode="/" d="M347 806 l-347 -1010 l131 0 l346 1010 l-130 0 Z" /><glyph glyph-name="" unicode="0" d="M330 754 q-153 -3 -232 -107 q-80 -105 -80 -273 q0 -168 80 -272 q79 -105 232 -108 q153 3 232 108 q80 104 80 272 q0 168 -80 273 q-79 104 -232 107 l0 0 ZM330 142 q-60 3 -91 68 q-32 66 -32 164 q0 98 32 164 q31 65 91 68 q60 -3 92 -68 q31 -66 31 -164 q0 -98 -31 -164 q-32 -65 -92 -68 l0 0 Z" /><glyph glyph-name="" unicode="1" d="M285 547 l0 -399 l-179 0 l0 -148 l491 0 l0 148 l-124 0 l0 600 l-122 0 l-289 -160 l50 -108 l173 67 Z" /><glyph glyph-name="" unicode="2" d="M594 526 q-1 102 -73 164 q-72 62 -201 64 q-44 2 -110 -12 q-66 -13 -143 -63 l60 -123 q59 35 99 43 q39 8 74 7 q47 0 76 -23 q29 -23 30 -67 q-13 -119 -139 -230 q-126 -111 -202 -157 l0 -129 l521 0 l0 148 l-298 0 l-1 4 q86 44 192 135 q105 92 115 239 l0 0 Z" /><glyph glyph-name="" unicode="3" d="M221 325 l83 0 q62 -3 81 -34 q20 -30 18 -48 q0 -44 -26 -70 q-26 -27 -76 -28 q-40 1 -82 19 q-43 17 -82 43 l-68 -138 q64 -39 124 -57 q60 -18 118 -18 q134 2 207 67 q72 64 73 162 q1 47 -32 96 q-32 49 -113 70 l0 4 q69 32 96 76 q26 43 25 94 q-3 92 -76 141 q-73 50 -180 50 q-55 0 -115 -18 q-60 -18 -118 -57 l60 -123 q44 28 80 38 q36 10 63 9 q42 0 70 -20 q27 -20 28 -57 q1 -24 -14 -49 q-15 -24 -62 -26 l-82 0 l0 -126 Z" /><glyph glyph-name="" unicode="4" d="M546 754 l-161 0 l-350 -510 l7 -96 l326 0 l0 -148 l178 0 l0 148 l79 0 l0 148 l-79 0 l0 458 ZM241 296 l-1 3 l124 183 l4 -2 l0 -184 l-127 0 Z" /><glyph glyph-name="" unicode="5" d="M290 145 q-40 1 -82 19 q-43 17 -82 43 l-68 -138 q64 -39 124 -57 q60 -18 118 -18 q126 3 212 75 q85 72 89 183 q-3 119 -74 179 q-70 60 -176 60 l-63 0 l7 109 l249 0 l0 148 l-398 0 l-29 -405 l144 0 q68 0 109 -25 q42 -25 43 -76 q0 -43 -33 -69 q-32 -27 -90 -28 l0 0 Z" /><glyph glyph-name="" unicode="6" d="M324 754 q-138 -147 -206 -265 q-67 -119 -67 -239 q2 -113 77 -183 q76 -71 203 -73 q123 3 199 69 q77 67 79 167 q-1 108 -61 173 q-60 64 -167 66 q-20 0 -39 -3 q-20 -4 -39 -9 l-3 4 q66 94 125 166 q60 72 108 121 l-209 6 ZM331 331 q42 -1 68 -30 q26 -29 27 -71 q0 -38 -25 -67 q-25 -29 -70 -31 q-39 0 -67 24 q-28 24 -29 74 q1 42 27 71 q26 29 69 30 l0 0 Z" /><glyph glyph-name="" unicode="7" d="M619 671 l0 77 l-578 0 l0 -148 l359 0 l-281 -600 l202 -6 l298 677 Z" /><glyph glyph-name="" unicode="8" d="M329 603 q35 0 60 -20 q26 -20 27 -57 q1 -24 -14 -49 q-15 -24 -62 -26 l-21 0 q-47 2 -62 26 q-15 25 -14 49 q1 37 26 57 q25 20 60 20 l0 0 ZM329 754 q-115 0 -193 -46 q-78 -46 -81 -145 q-1 -51 25 -94 q27 -44 96 -76 l0 -4 q-81 -21 -113 -70 q-33 -49 -32 -96 q-1 -98 71 -162 q72 -65 227 -67 q155 2 228 67 q72 64 71 162 q1 47 -32 96 q-32 49 -113 70 l0 4 q69 32 96 76 q26 43 25 94 q-3 99 -82 145 q-78 46 -193 46 l0 0 ZM329 145 q-57 1 -83 28 q-27 26 -27 70 q-2 18 18 48 q19 31 81 34 l23 0 q62 -3 81 -34 q20 -30 18 -48 q0 -44 -27 -70 q-27 -27 -84 -28 l0 0 Z" /><glyph glyph-name="" unicode="9" d="M336 -6 q138 147 206 266 q67 118 67 238 q-2 113 -77 184 q-76 70 -203 72 q-123 -3 -199 -69 q-77 -67 -79 -167 q1 -108 61 -173 q60 -64 167 -66 q20 0 39 3 q20 4 39 9 l3 -4 q-66 -94 -125 -166 q-60 -72 -108 -121 l209 -6 ZM329 417 q-42 1 -68 30 q-26 29 -27 71 q0 38 25 67 q25 29 70 31 q39 0 67 -24 q28 -24 29 -74 q-1 -42 -27 -71 q-26 -29 -69 -30 l0 0 Z" /><glyph glyph-name="" unicode=":" d="M60 91 q1 -41 28 -69 q28 -27 69 -28 q42 1 69 28 q27 28 28 69 q-1 42 -28 70 q-27 28 -69 29 q-41 -1 -69 -29 q-27 -28 -28 -70 l0 0 ZM60 427 q1 -41 28 -69 q28 -27 69 -28 q42 1 69 28 q27 28 28 69 q-1 42 -28 69 q-27 28 -69 29 q-41 -1 -69 -29 q-27 -27 -28 -69 l0 0 Z" /><glyph glyph-name="" unicode=";" d="M60 427 q1 -41 28 -69 q28 -27 69 -28 q42 1 69 28 q27 28 28 69 q-1 42 -28 69 q-27 28 -69 29 q-41 -1 -69 -29 q-27 -27 -28 -69 l0 0 ZM61 91 q1 -37 25 -66 q23 -28 58 -30 l-66 -134 l76 -25 q42 53 70 122 q29 69 30 133 q-1 42 -28 70 q-27 28 -69 29 q-41 -1 -68 -29 q-27 -28 -28 -70 l0 0 Z" /><glyph glyph-name="" unicode="&lt;" d="M583 597 l-506 -198 l0 -126 l506 -198 l0 136 l-317 123 l0 4 l317 123 l0 136 Z" /><glyph glyph-name="" unicode="=" d="M56 381 l548 0 l0 126 l-548 0 l0 -126 ZM56 169 l548 0 l0 126 l-548 0 l0 -126 Z" /><glyph glyph-name="" unicode="&gt;" d="M77 461 l317 -123 l0 -4 l-317 -123 l0 -136 l506 198 l0 126 l-506 198 l0 -136 Z" /><glyph glyph-name="" unicode="?" d="M230 615 q31 1 50 -19 q18 -19 19 -64 q-3 -46 -48 -85 q-45 -38 -97 -62 l22 -151 l108 0 l19 98 q68 33 118 91 q49 58 51 145 q-3 98 -69 142 q-66 45 -153 44 q-55 0 -106 -14 q-52 -15 -104 -48 l62 -124 q36 24 67 36 q30 11 61 11 l0 0 ZM138 86 q1 -39 27 -65 q26 -26 65 -27 q39 1 65 27 q26 26 27 65 q-1 39 -27 65 q-26 26 -65 27 q-39 -1 -65 -27 q-26 -26 -27 -65 l0 0 Z" /><glyph glyph-name="" unicode="@" d="M510 504 q-104 0 -168 -62 q-63 -61 -65 -178 q2 -118 64 -183 q61 -66 159 -67 q52 1 88 27 q36 25 61 65 l6 0 q17 -46 57 -69 q39 -23 83 -23 q78 0 136 62 q58 62 61 186 q-5 239 -133 340 q-129 101 -323 98 q-194 1 -322 -106 q-129 -106 -134 -332 q3 -226 125 -334 q123 -108 331 -107 q55 0 110 12 q55 11 97 28 l-33 114 q-35 -16 -81 -26 q-46 -10 -93 -10 q-154 -1 -245 79 q-91 79 -93 244 q4 164 99 243 q96 78 239 77 q143 2 239 -71 q95 -73 99 -249 q-1 -64 -21 -97 q-20 -33 -48 -33 q-19 -1 -43 15 q-24 16 -26 61 l0 248 l-98 0 q-27 23 -59 36 q-31 12 -69 12 l0 0 ZM500 142 q-32 0 -53 31 q-21 32 -22 91 q2 62 28 88 q27 25 57 24 q21 0 42 -12 q21 -12 36 -34 l0 -91 q-2 -45 -29 -71 q-27 -25 -59 -26 l0 0 Z" /><glyph glyph-name="" unicode="a" d="M235 118 l288 0 l53 -124 l190 6 l-327 748 l-122 0 l-327 -748 l193 -6 l52 124 ZM472 262 l-187 0 l91 237 l4 0 l92 -237 Z" /><glyph glyph-name="" unicode="b" d="M248 460 l0 140 l135 0 q20 1 43 -15 q23 -15 25 -55 q-1 -35 -20 -52 q-20 -18 -48 -18 l-135 0 ZM381 316 q45 0 74 -22 q29 -22 30 -62 q2 -28 -20 -55 q-21 -27 -85 -29 l-132 0 l0 168 l133 0 ZM639 555 q0 83 -59 137 q-59 54 -173 56 l-347 0 l0 -748 l347 0 q130 1 198 59 q68 57 68 152 q-2 66 -43 114 q-42 47 -105 63 l0 4 q61 28 88 73 q27 44 26 90 l0 0 Z" /><glyph glyph-name="" unicode="c" d="M679 679 q-58 35 -119 55 q-62 20 -135 20 q-192 -4 -288 -111 q-97 -107 -97 -269 q0 -162 97 -269 q96 -107 288 -111 q73 0 135 20 q61 20 119 55 l-74 151 q-42 -32 -85 -49 q-44 -17 -95 -17 q-96 2 -146 65 q-51 62 -51 155 q0 94 51 156 q50 62 146 64 q51 0 95 -17 q43 -17 85 -49 l74 151 Z" /><glyph glyph-name="" unicode="d" d="M60 0 l274 0 q182 4 273 108 q92 105 92 266 q0 161 -92 266 q-91 104 -273 108 l-274 0 l0 -748 ZM314 600 q97 -1 147 -59 q50 -59 50 -167 q0 -107 -50 -166 q-51 -59 -147 -60 l-66 0 l0 452 l66 0 Z" /><glyph glyph-name="" unicode="e" d="M615 600 l0 148 l-555 0 l0 -748 l555 0 l0 148 l-367 0 l0 168 l325 0 l0 144 l-325 0 l0 140 l367 0 Z" /><glyph glyph-name="" unicode="f" d="M585 600 l0 148 l-525 0 l0 -748 l188 0 l0 286 l295 0 l0 144 l-295 0 l0 170 l337 0 Z" /><glyph glyph-name="" unicode="g" d="M426 -6 q74 1 145 25 q72 25 136 67 l0 344 l-289 0 l0 -144 l121 0 l0 -103 q-27 -15 -55 -21 q-27 -6 -58 -6 q-96 2 -147 64 q-51 61 -51 154 q0 94 51 156 q50 62 146 64 q57 0 106 -17 q48 -17 94 -49 l74 151 q-62 35 -129 55 q-66 20 -145 20 q-192 -4 -288 -111 q-97 -107 -97 -269 q0 -162 97 -269 q97 -107 289 -111 l0 0 Z" /><glyph glyph-name="" unicode="h" d="M248 0 l0 316 l291 0 l0 -316 l188 0 l0 748 l-188 0 l0 -288 l-291 0 l0 288 l-188 0 l0 -748 l188 0 Z" /><glyph glyph-name="" unicode="i" d="M248 748 l-188 0 l0 -748 l188 0 l0 748 Z" /><glyph glyph-name="" unicode="j" d="M10 38 q38 -20 80 -32 q42 -12 89 -12 q120 -1 192 67 q71 69 73 223 l0 464 l-188 0 l0 -479 q0 -59 -21 -86 q-21 -26 -56 -26 q-25 0 -48 7 q-23 7 -47 25 l-74 -151 Z" /><glyph glyph-name="" unicode="k" d="M248 748 l-188 0 l0 -748 l188 0 l0 299 l71 0 l194 -305 l209 6 l-254 371 l212 377 l-204 6 l-158 -311 l-70 0 l0 305 Z" /><glyph glyph-name="" unicode="l" d="M60 0 l505 0 l0 148 l-317 0 l0 600 l-188 0 l0 -748 Z" /><glyph glyph-name="" unicode="m" d="M482 128 l155 259 l4 -1 l0 -387 l188 0 l0 749 l-139 0 l-245 -414 l-246 414 l-139 0 l0 -749 l188 0 l0 386 l4 2 l154 -259 l76 0 Z" /><glyph glyph-name="" unicode="n" d="M615 0 l112 0 l0 748 l-188 0 l0 -427 l-4 -2 l-367 429 l-108 0 l0 -748 l188 0 l0 420 l4 2 l363 -422 Z" /><glyph glyph-name="" unicode="o" d="M412 754 q-181 -3 -276 -107 q-95 -105 -96 -273 q1 -168 96 -272 q95 -105 276 -108 q181 3 276 108 q95 104 96 272 q-1 168 -96 273 q-95 104 -276 107 l0 0 ZM412 152 q-91 3 -137 67 q-46 64 -46 155 q0 91 46 155 q46 64 137 67 q92 -3 137 -67 q46 -64 46 -155 q0 -91 -46 -155 q-45 -64 -137 -67 l0 0 Z" /><glyph glyph-name="" unicode="p" d="M60 748 l0 -748 l188 0 l0 226 l123 0 q123 3 206 77 q83 74 86 187 q-3 113 -86 185 q-83 71 -206 73 l-311 0 ZM351 600 q54 -1 88 -30 q35 -30 36 -80 q-1 -48 -36 -78 q-34 -31 -88 -32 l-103 0 l0 220 l103 0 Z" /><glyph glyph-name="" unicode="q" d="M391 140 q-72 20 -117 79 q-44 58 -45 155 q0 91 46 155 q46 64 137 67 q92 -3 137 -67 q46 -64 46 -155 q3 -91 -40 -161 q-43 -69 -164 -73 l0 0 ZM217 39 q130 -74 247 -128 q117 -54 247 -118 l66 142 l-198 88 l0 4 q102 44 154 131 q51 86 51 216 q-1 168 -96 273 q-95 104 -276 107 q-181 -3 -276 -107 q-95 -105 -96 -273 q3 -137 55 -217 q53 -81 122 -118 l0 0 Z" /><glyph glyph-name="" unicode="r" d="M60 748 l0 -748 l188 0 l0 282 l74 0 l170 -288 l209 6 l-195 299 q67 28 109 80 q42 53 43 132 q-3 113 -71 175 q-69 61 -171 62 l-356 0 ZM386 600 q34 0 59 -24 q24 -24 25 -65 q-1 -33 -25 -58 q-24 -26 -57 -27 l-140 0 l0 174 l138 0 Z" /><glyph glyph-name="" unicode="s" d="M314 147 q-48 1 -101 23 q-54 22 -99 55 l-74 -146 q60 -39 124 -62 q64 -23 140 -23 q139 0 214 58 q74 57 75 170 q-22 163 -178 214 q-156 51 -178 114 q0 20 21 33 q21 14 61 14 q47 -1 96 -21 q49 -20 94 -53 l74 146 q-58 39 -119 62 q-62 23 -135 23 q-142 -2 -211 -62 q-69 -60 -69 -152 q22 -176 178 -223 q156 -48 178 -110 q-1 -30 -26 -45 q-25 -15 -65 -15 l0 0 Z" /><glyph glyph-name="" unicode="t" d="M604 748 l-594 0 l0 -148 l203 0 l0 -600 l188 0 l0 600 l203 0 l0 148 Z" /><glyph glyph-name="" unicode="u" d="M385 141 q-67 2 -102 52 q-35 51 -35 129 l0 426 l-188 0 l0 -426 q0 -145 82 -236 q82 -90 243 -93 q161 3 243 93 q82 91 82 236 l0 426 l-188 0 l0 -426 q0 -78 -35 -129 q-35 -50 -102 -52 l0 0 Z" /><glyph glyph-name="" unicode="v" d="M350 249 l-4 0 l-163 505 l-193 -10 l287 -744 l142 0 l287 744 l-190 10 l-166 -505 Z" /><glyph glyph-name="" unicode="w" d="M710 249 l-4 0 l-163 499 l-67 0 l-166 -499 l-4 0 l-123 505 l-193 -10 l247 -744 l142 0 l127 358 l4 0 l127 -358 l142 0 l247 744 l-190 10 l-126 -505 Z" /><glyph glyph-name="" unicode="x" d="M356 259 l154 -265 l212 6 l-265 395 l232 353 l-211 6 l-122 -222 l-122 222 l-211 -6 l232 -353 l-265 -395 l212 -6 l154 265 Z" /><glyph glyph-name="" unicode="y" d="M676 748 l-221 6 l-120 -317 l-4 0 l-120 317 l-221 -6 l249 -469 l0 -279 l188 0 l0 284 l249 464 Z" /><glyph glyph-name="" unicode="z" d="M30 63 l0 -63 l606 0 l0 148 l-342 0 l348 537 l0 63 l-581 0 l0 -148 l318 0 l-349 -537 Z" /><glyph glyph-name="" unicode="[" d="M307 -27 l-131 0 l0 715 l128 0 l0 118 l-254 0 l0 -951 l257 0 l0 118 Z" /><glyph glyph-name="" unicode="\" d="M0 806 l346 -1010 l131 0 l-347 1010 l-130 0 Z" /><glyph glyph-name="" unicode="]" d="M20 -145 l257 0 l0 951 l-254 0 l0 -118 l128 0 l0 -715 l-131 0 l0 -118 Z" /><glyph glyph-name="" unicode="^" d="M80 296 l141 0 l155 325 l153 -325 l142 0 l-222 452 l-146 0 l-223 -452 Z" /><glyph glyph-name="" unicode="_" d="M500 -126 l0 66 l-500 0 l0 -66 l500 0 Z" /><glyph glyph-name="" unicode="`" d="M194 748 l-184 0 l124 -163 l144 0 l-84 163 Z" /><glyph glyph-name="" unicode="a" d="M291 117 q-34 0 -52 15 q-18 15 -18 42 q-1 23 15 40 q17 16 60 17 q23 0 39 -3 q16 -4 35 -11 q-2 -57 -30 -79 q-27 -22 -49 -21 l0 0 ZM293 525 q-59 0 -112 -12 q-52 -13 -103 -39 l51 -113 q41 19 72 27 q32 9 72 9 q44 1 70 -20 q26 -22 27 -75 q-24 7 -55 10 q-31 3 -49 3 q-149 -5 -190 -59 q-41 -54 -36 -97 q1 -74 53 -119 q51 -45 136 -46 q42 0 81 18 q38 18 68 50 l4 -1 l20 -61 l146 0 l0 302 q-2 112 -70 167 q-69 56 -185 56 l0 0 Z" /><glyph glyph-name="" unicode="b" d="M350 -6 q115 1 186 70 q71 69 73 195 q-1 126 -70 196 q-69 69 -188 70 q-33 0 -59 -8 q-26 -9 -53 -26 l-3 1 l0 303 l-176 0 l0 -763 l130 0 q30 -16 70 -27 q39 -11 90 -11 l0 0 ZM332 377 q42 0 71 -30 q29 -30 30 -88 q-1 -58 -29 -87 q-29 -30 -72 -30 q-28 0 -52 9 q-23 9 -44 22 l0 178 q20 13 42 19 q22 7 54 7 l0 0 Z" /><glyph glyph-name="" unicode="c" d="M216 259 q1 63 30 96 q28 32 71 32 q48 -1 81 -13 q33 -13 63 -32 l67 132 q-39 26 -85 38 q-45 13 -125 13 q-128 -1 -202 -70 q-74 -70 -76 -196 q2 -126 76 -195 q74 -69 202 -70 q80 0 125 13 q46 13 85 38 l-67 132 q-30 -19 -63 -31 q-33 -13 -81 -14 q-43 0 -71 32 q-29 32 -30 95 l0 0 Z" /><glyph glyph-name="" unicode="d" d="M413 203 q-14 -25 -39 -42 q-25 -18 -57 -19 q-43 0 -71 30 q-29 29 -30 87 q1 58 30 88 q29 30 71 30 q32 0 54 -7 q22 -6 42 -19 l0 -148 ZM413 492 l-3 -1 q-27 17 -53 26 q-26 8 -59 8 q-118 -1 -187 -70 q-69 -70 -71 -196 q3 -126 68 -195 q65 -69 161 -70 q49 1 85 20 q36 19 65 48 l4 -1 l20 -61 l146 0 l0 795 l-176 0 l0 -303 Z" /><glyph glyph-name="" unicode="e" d="M327 122 q-46 -1 -73 17 q-28 18 -35 69 l340 0 l7 51 q0 126 -63 196 q-63 69 -195 70 q-123 -1 -195 -70 q-71 -70 -73 -196 q2 -126 79 -195 q77 -69 209 -70 q128 0 215 51 l-51 113 q-37 -18 -79 -27 q-43 -9 -86 -9 l0 0 ZM305 407 q38 0 64 -24 q26 -24 27 -71 l-175 0 q7 47 28 71 q21 24 56 24 l0 0 Z" /><glyph glyph-name="" unicode="f" d="M460 755 q-50 23 -89 32 q-39 8 -76 8 q-67 3 -132 -42 q-65 -45 -70 -175 l0 -59 l-83 0 l0 -120 l83 0 l0 -399 l176 0 l0 399 l108 0 l0 120 l-108 0 l0 46 q2 57 26 71 q25 14 50 12 q10 0 32 -4 q21 -3 46 -13 l37 124 Z" /><glyph glyph-name="" unicode="g" d="M649 408 l-39 111 q-22 -13 -42 -20 q-21 -7 -43 -7 q-63 2 -102 17 q-40 14 -124 16 q-126 -1 -182 -49 q-56 -47 -55 -126 q0 -43 16 -74 q16 -31 45 -52 q-21 -15 -34 -36 q-13 -22 -13 -48 q0 -20 8 -38 q7 -19 22 -33 q-30 -19 -48 -49 q-18 -30 -18 -68 q-2 -75 58 -120 q61 -45 214 -46 q149 1 217 48 q67 48 66 126 q1 65 -48 111 q-49 46 -165 56 l-129 10 q-19 2 -29 9 q-10 6 -10 17 q0 9 5 15 q4 6 10 8 q13 -3 31 -5 q18 -3 40 -3 q116 0 176 44 q59 43 59 128 q0 12 -2 24 q35 1 64 11 q30 10 52 23 l0 0 ZM367 5 q23 -3 36 -11 q14 -9 14 -29 q0 -23 -27 -35 q-27 -12 -78 -12 q-53 0 -79 14 q-25 14 -25 40 q0 11 3 25 q4 15 11 25 l145 -17 ZM298 407 q23 0 36 -4 q13 -4 23 -9 q5 -9 8 -21 q2 -13 2 -25 q0 -24 -17 -38 q-17 -14 -51 -14 q-34 0 -51 14 q-18 14 -18 38 q-1 25 15 42 q15 16 53 17 l0 0 Z" /><glyph glyph-name="" unicode="h" d="M236 458 l0 337 l-176 0 l0 -795 l176 0 l0 318 q18 25 44 43 q27 17 59 18 q30 1 52 -17 q23 -19 24 -73 l0 -289 l176 0 l0 279 q-3 147 -61 198 q-59 51 -131 48 q-47 0 -86 -18 q-39 -18 -73 -50 l-4 1 Z" /><glyph glyph-name="" unicode="i" d="M247 0 l0 519 l-176 0 l0 -519 l176 0 ZM60 674 q1 -42 29 -70 q28 -28 70 -29 q42 1 70 29 q28 28 29 70 q-1 42 -29 70 q-28 29 -70 30 q-42 -1 -70 -30 q-28 -28 -29 -70 l0 0 Z" /><glyph glyph-name="" unicode="j" d="M100 674 q1 -42 29 -70 q28 -28 70 -29 q42 1 70 29 q28 28 29 70 q-1 42 -29 70 q-28 29 -70 30 q-42 -1 -70 -30 q-28 -28 -29 -70 l0 0 ZM111 16 q0 -40 -30 -63 q-30 -24 -89 -25 l25 -134 q13 -4 28 -6 q15 -2 23 -2 q93 0 155 56 q62 57 64 170 l0 507 l-176 0 l0 -503 Z" /><glyph glyph-name="" unicode="k" d="M405 -6 l209 6 l-188 274 l154 245 l-204 6 l-105 -199 l-35 0 l0 469 l-176 0 l0 -795 l176 0 l0 220 l37 0 l132 -226 Z" /><glyph glyph-name="" unicode="l" d="M236 795 l-176 0 l0 -577 q0 -113 43 -170 q43 -56 133 -56 q8 0 23 2 q15 2 28 6 l25 134 q-47 1 -62 25 q-15 23 -14 63 l0 573 Z" /><glyph glyph-name="" unicode="m" d="M226 458 l-20 61 l-146 0 l0 -519 l176 0 l0 318 q14 25 36 43 q21 17 47 18 q30 1 52 -17 q23 -19 24 -73 l0 -289 l176 0 l0 318 q14 25 36 43 q21 17 47 18 q30 1 52 -17 q23 -19 24 -73 l0 -289 l176 0 l0 279 q-3 147 -61 198 q-59 51 -131 48 q-40 0 -86 -21 q-46 -21 -89 -69 q-29 52 -71 71 q-43 20 -89 19 q-42 0 -80 -18 q-39 -18 -69 -50 l-4 1 Z" /><glyph glyph-name="" unicode="n" d="M226 458 l-20 61 l-146 0 l0 -519 l176 0 l0 318 q18 25 44 43 q27 17 59 18 q30 1 52 -17 q23 -19 24 -73 l0 -289 l176 0 l0 279 q-3 147 -61 198 q-59 51 -131 48 q-48 0 -91 -18 q-44 -18 -78 -50 l-4 1 Z" /><glyph glyph-name="" unicode="o" d="M318 525 q-125 -1 -200 -69 q-76 -68 -78 -197 q2 -125 78 -194 q75 -70 200 -71 q125 1 201 71 q75 69 77 194 q-2 129 -77 197 q-76 68 -201 69 l0 0 ZM318 388 q46 -1 74 -35 q27 -34 28 -94 q-1 -59 -28 -93 q-28 -34 -74 -35 q-46 1 -73 35 q-28 34 -29 93 q1 60 29 94 q27 34 73 35 l0 0 Z" /><glyph glyph-name="" unicode="p" d="M236 316 q14 25 39 43 q25 17 57 18 q43 0 72 -30 q28 -29 29 -87 q-1 -58 -30 -88 q-29 -30 -71 -30 q-32 0 -54 7 q-22 6 -42 19 l0 148 ZM236 27 l3 1 q27 -17 53 -26 q26 -8 59 -8 q119 1 188 70 q69 70 70 196 q-3 126 -68 195 q-65 69 -161 70 q-49 -1 -85 -20 q-36 -19 -65 -48 l-4 1 l-20 61 l-146 0 l0 -727 l176 0 l0 235 Z" /><glyph glyph-name="" unicode="q" d="M413 27 l0 -235 l176 0 l0 695 l-130 0 q-30 16 -69 27 q-40 11 -91 11 q-115 -1 -186 -70 q-71 -69 -73 -195 q2 -126 71 -196 q69 -69 187 -70 q33 0 59 8 q26 9 53 26 l3 -1 ZM317 142 q-42 0 -71 30 q-29 30 -30 88 q1 58 30 87 q28 30 71 30 q28 0 52 -9 q23 -9 44 -22 l0 -178 q-20 -13 -42 -19 q-22 -7 -54 -7 l0 0 Z" /><glyph glyph-name="" unicode="r" d="M226 458 l-20 61 l-146 0 l0 -519 l176 0 l0 308 q18 25 44 43 q27 17 59 18 q18 0 36 -3 q18 -3 33 -12 l38 156 q-17 8 -38 12 q-20 3 -39 3 q-39 -1 -76 -20 q-37 -19 -63 -48 l-4 1 Z" /><glyph glyph-name="" unicode="s" d="M264 161 q0 -16 -17 -22 q-17 -7 -47 -7 q-16 -1 -44 4 q-28 4 -75 22 l-51 -113 q47 -27 92 -39 q45 -12 91 -12 q98 0 156 44 q59 44 60 128 q-14 119 -114 149 q-101 31 -115 53 q1 17 20 21 q19 4 39 3 q12 0 41 -6 q29 -6 66 -24 l51 118 q-45 27 -87 36 q-43 10 -86 9 q-105 -2 -154 -50 q-50 -47 -49 -110 q14 -118 112 -147 q97 -28 111 -57 l0 0 Z" /><glyph glyph-name="" unicode="t" d="M393 158 q-20 -11 -35 -14 q-16 -3 -33 -3 q-22 -1 -43 17 q-21 18 -23 66 l0 175 l138 0 l0 120 l-138 0 l0 149 l-126 0 l-50 -149 l-83 0 l0 -120 l83 0 l0 -188 q5 -130 66 -175 q62 -45 126 -42 q35 0 71 8 q37 9 84 32 l-37 124 Z" /><glyph glyph-name="" unicode="u" d="M430 61 l20 -61 l146 0 l0 519 l-176 0 l0 -318 q-17 -25 -44 -42 q-26 -18 -59 -19 q-30 -1 -52 17 q-23 19 -24 73 l0 289 l-176 0 l0 -279 q3 -147 62 -198 q58 -51 130 -48 q48 0 91 18 q44 18 78 50 l4 -1 Z" /><glyph glyph-name="" unicode="v" d="M371 0 l223 519 l-192 6 l-103 -306 l-4 0 l-103 306 l-192 -6 l223 -519 l148 0 Z" /><glyph glyph-name="" unicode="w" d="M331 0 l104 241 l4 0 l94 -241 l148 0 l193 519 l-192 6 l-83 -306 l-4 0 l-113 300 l-90 0 l-113 -300 l-4 0 l-83 306 l-192 -6 l193 -519 l138 0 Z" /><glyph glyph-name="" unicode="x" d="M308 393 l-75 132 l-205 -6 l171 -242 l-199 -277 l206 -6 l102 170 l102 -170 l206 6 l-199 277 l171 242 l-205 6 l-75 -132 Z" /><glyph glyph-name="" unicode="y" d="M279 -214 l315 733 l-192 6 l-103 -306 l-4 0 l-103 306 l-192 -6 l210 -489 l-102 -238 l171 -6 Z" /><glyph glyph-name="" unicode="z" d="M511 431 l0 88 l-460 0 l0 -136 l221 0 l-232 -295 l0 -88 l471 0 l0 136 l-222 0 l222 295 Z" /><glyph glyph-name="" unicode="{" d="M160 327 q23 10 48 47 q25 36 27 99 l0 178 q0 17 10 27 q10 10 27 10 l59 0 l0 118 l-59 0 q-76 -1 -119 -44 q-43 -43 -44 -119 l0 -124 q1 -57 -15 -95 q-17 -39 -64 -52 l0 -89 q47 -13 64 -52 q16 -38 15 -95 l0 -124 q1 -76 44 -119 q43 -43 119 -44 l59 0 l0 118 l-59 0 q-17 0 -27 10 q-10 10 -10 27 l0 178 q-2 63 -27 99 q-25 36 -48 46 l0 0 Z" /><glyph glyph-name="" unicode="|" d="M50 806 l0 -960 l126 0 l0 960 l-126 0 Z" /><glyph glyph-name="" unicode="}" d="M191 327 q-23 -10 -48 -46 q-25 -36 -27 -99 l0 -178 q0 -17 -10 -27 q-10 -10 -27 -10 l-59 0 l0 -118 l59 0 q76 1 119 44 q43 43 44 119 l0 124 q-1 57 16 95 q16 39 63 52 l0 89 q-47 13 -63 52 q-17 38 -16 95 l0 124 q-1 76 -44 119 q-43 43 -119 44 l-59 0 l0 -118 l59 0 q17 0 27 -10 q10 -10 10 -27 l0 -178 q2 -63 27 -99 q25 -37 48 -47 l0 0 Z" /><glyph glyph-name="" unicode="~" d="M72 309 q46 -31 77 -45 q32 -13 74 -13 q69 3 115 24 q47 20 87 23 q29 -2 59 -18 q29 -17 40 -25 l63 107 q-46 31 -80 47 q-35 15 -84 15 q-68 -3 -113 -23 q-46 -21 -89 -24 q-29 2 -53 17 q-24 15 -35 23 l-61 -108 Z" /><glyph glyph-name="" unicode=" " d="" /><glyph glyph-name="" unicode="¡" d="M237 300 l-110 0 l-25 -514 l160 0 l-25 514 ZM90 448 q1 -39 27 -65 q26 -26 65 -27 q39 1 65 27 q26 26 27 65 q-1 39 -27 65 q-26 26 -65 27 q-39 -1 -65 -27 q-26 -26 -27 -65 l0 0 Z" /><glyph glyph-name="" unicode="¢" d="M262 374 q1 63 30 96 q28 32 71 32 q48 -1 81 -13 q33 -13 63 -32 l67 132 q-32 18 -66 31 q-34 12 -85 17 l0 150 l-128 0 l0 -153 q-98 -19 -153 -85 q-55 -67 -56 -175 q1 -108 56 -174 q55 -67 153 -85 l0 -153 l128 0 l0 149 q51 5 85 18 q34 13 66 31 l-67 132 q-30 -19 -63 -31 q-33 -13 -81 -14 q-43 0 -71 32 q-29 32 -30 95 l0 0 Z" /><glyph glyph-name="" unicode="£" d="M58 414 l0 -102 l80 0 l0 -164 l-80 0 l0 -148 l493 0 l0 148 l-225 0 l0 164 l168 0 l18 102 l-186 0 l0 51 q2 98 33 122 q31 23 65 19 q22 0 55 -9 q33 -9 73 -28 l48 134 q-42 26 -99 38 q-56 13 -113 13 q-108 0 -178 -62 q-70 -63 -72 -189 l0 -89 l-80 0 Z" /><glyph glyph-name="" unicode="¥" d="M54 494 l24 -88 l105 0 l30 -72 l-118 0 l24 -88 l117 0 l0 -246 l188 0 l0 246 l108 0 l24 88 l-109 0 l29 72 l97 0 l24 88 l-84 0 l105 254 l-201 6 l-85 -290 l-4 0 l-85 290 l-201 -6 l105 -254 l-93 0 Z" /><glyph glyph-name="" unicode="§" d="M50 336 q20 -147 161 -186 q140 -39 160 -103 q-2 -32 -29 -43 q-27 -11 -56 -10 q-25 0 -58 9 q-34 9 -66 32 l-62 -113 q50 -31 97 -44 q47 -14 89 -14 q79 -2 153 39 q75 41 80 147 q0 26 -6 48 q-5 21 -15 39 q34 27 55 64 q20 36 21 81 q-20 147 -160 186 q-141 39 -161 103 q2 32 29 43 q27 11 56 10 q24 0 58 -9 q34 -9 66 -32 l62 113 q-50 31 -97 44 q-47 14 -89 14 q-79 2 -153 -39 q-75 -41 -80 -147 q0 -52 20 -88 q-34 -27 -54 -63 q-20 -36 -21 -81 l0 0 ZM198 353 q0 12 5 23 q4 11 13 19 q74 -35 140 -60 q66 -24 70 -70 q0 -25 -19 -43 q-73 36 -139 60 q-66 25 -70 71 l0 0 Z" /><glyph glyph-name="" unicode="¨" d="M93 586 q37 1 61 25 q23 24 24 61 q-1 37 -26 59 q-25 22 -61 23 q-34 -1 -57 -25 q-23 -24 -24 -57 q1 -36 24 -60 q23 -25 59 -26 l0 0 ZM301 586 q37 1 61 25 q23 24 24 61 q-1 37 -26 59 q-25 22 -61 23 q-34 -1 -57 -25 q-23 -24 -24 -57 q1 -36 24 -60 q23 -25 59 -26 l0 0 Z" /><glyph glyph-name="" unicode="©" d="M577 555 q-29 14 -66 21 q-37 8 -72 8 q-90 0 -148 -54 q-58 -54 -60 -155 q1 -103 55 -156 q55 -54 153 -54 q27 0 65 8 q37 8 79 29 l-45 89 q-30 -15 -55 -20 q-26 -6 -44 -6 q-51 0 -79 28 q-29 28 -29 82 q1 53 31 81 q30 28 77 28 q25 0 50 -5 q25 -5 44 -14 l44 90 ZM60 374 q4 -162 111 -269 q107 -107 269 -111 q162 4 269 111 q107 107 111 269 q-4 162 -111 269 q-107 107 -269 111 q-162 -4 -269 -111 q-107 -107 -111 -269 l0 0 ZM140 374 q3 128 88 212 q84 85 212 88 q128 -3 212 -88 q85 -84 88 -212 q-3 -128 -88 -212 q-84 -85 -212 -88 q-128 3 -212 88 q-85 84 -88 212 l0 0 Z" /><glyph glyph-name="" unicode="ª" d="M353 428 l0 187 q-1 71 -45 105 q-44 34 -119 34 q-36 0 -69 -7 q-33 -7 -66 -25 l38 -78 q27 12 46 16 q19 4 34 4 q17 1 33 -7 q16 -9 17 -41 q-16 4 -28 5 q-12 2 -26 2 q-92 -3 -117 -36 q-24 -34 -21 -60 q1 -46 32 -74 q30 -28 80 -29 q29 0 51 10 q21 10 37 25 l5 0 l15 -31 l103 0 ZM187 504 q-13 0 -21 8 q-9 8 -9 22 q0 14 9 23 q8 8 21 8 q8 0 18 -2 q9 -2 17 -4 q0 -33 -10 -44 q-10 -12 -25 -11 l0 0 Z" /><glyph glyph-name="" unicode="«" d="M221 598 l-161 -231 l0 -8 l161 -229 l91 61 l-116 173 l116 173 l-91 61 ZM462 598 l-161 -231 l0 -8 l161 -229 l91 61 l-116 173 l116 173 l-91 61 Z" /><glyph glyph-name="" unicode="¬" d="M56 382 l422 0 l0 -211 l126 0 l0 337 l-548 0 l0 -126 Z" /><glyph glyph-name="" unicode="®" d="M60 374 q4 -162 111 -269 q107 -107 269 -111 q162 4 269 111 q107 107 111 269 q-4 162 -111 269 q-107 107 -269 111 q-162 -4 -269 -111 q-107 -107 -111 -269 l0 0 ZM140 374 q3 128 88 212 q84 85 212 88 q128 -3 212 -88 q85 -84 88 -212 q-3 -128 -88 -212 q-84 -85 -212 -88 q-128 3 -212 88 q-85 84 -88 212 l0 0 ZM605 458 q1 44 -34 86 q-35 41 -114 44 l-168 0 l0 -413 l99 0 l0 154 l50 0 l68 -158 l108 0 l-84 177 q38 17 56 46 q19 28 19 64 l0 0 ZM388 495 l64 0 q28 0 42 -12 q13 -12 13 -31 q0 -20 -14 -33 q-14 -13 -41 -14 l-64 0 l0 90 Z" /><glyph glyph-name="" unicode="¯" d="M350 714 l-340 0 l0 -96 l340 0 l0 96 Z" /><glyph glyph-name="" unicode="°" d="M202 488 q-38 1 -62 26 q-25 24 -26 62 q1 38 26 62 q24 25 62 26 q38 -1 62 -26 q25 -24 26 -62 q-1 -38 -26 -62 q-24 -25 -62 -26 l0 0 ZM202 404 q73 2 122 50 q48 49 50 122 q-2 73 -50 122 q-49 48 -122 50 q-73 -2 -122 -50 q-48 -49 -50 -122 q2 -73 50 -122 q49 -48 122 -50 l0 0 Z" /><glyph glyph-name="" unicode="±" d="M56 358 l211 0 l0 -128 l126 0 l0 128 l211 0 l0 126 l-211 0 l0 128 l-126 0 l0 -128 l-211 0 l0 -126 ZM56 64 l548 0 l0 126 l-548 0 l0 -126 Z" /><glyph glyph-name="" unicode="´" d="M10 585 l144 0 l124 163 l-184 0 l-84 -163 Z" /><glyph glyph-name="" unicode="µ" d="M415 61 l20 -61 l146 0 l0 519 l-176 0 l0 -318 q-17 -25 -44 -42 q-26 -18 -59 -19 q-30 -1 -52 17 q-23 19 -24 73 l0 289 l-176 0 l0 -727 l176 0 l0 203 q7 -1 16 -1 q48 0 91 18 q44 18 78 50 l4 -1 Z" /><glyph glyph-name="" unicode="¶" d="M341 748 q-128 -3 -213 -88 q-85 -85 -88 -213 q3 -128 88 -213 q85 -85 213 -88 l0 -354 l126 0 l0 808 l100 0 l0 -808 l126 0 l0 956 l-352 0 Z" /><glyph glyph-name="" unicode="·" d="M224 379 q-1 37 -26 62 q-25 25 -61 26 q-38 -1 -63 -26 q-25 -25 -26 -62 q1 -36 26 -61 q25 -25 63 -26 q36 1 61 26 q25 25 26 61 l0 0 Z" /><glyph glyph-name="" unicode="¸" d="M254 0 l-99 60 l-145 -184 l123 -79 l121 203 Z" /><glyph glyph-name="" unicode="º" d="M203 754 q-78 0 -125 -42 q-47 -42 -48 -123 q1 -77 48 -121 q47 -43 125 -44 q78 1 125 44 q47 44 48 121 q-1 81 -48 123 q-47 42 -125 42 l0 0 ZM203 657 q20 0 32 -19 q12 -18 12 -49 q0 -30 -12 -49 q-12 -18 -32 -19 q-20 1 -32 19 q-12 19 -12 49 q0 31 12 49 q12 19 32 19 l0 0 Z" /><glyph glyph-name="" unicode="»" d="M70 537 l116 -173 l-116 -173 l91 -61 l161 229 l0 8 l-161 231 l-91 -61 ZM311 537 l116 -173 l-116 -173 l91 -61 l161 229 l0 8 l-161 231 l-91 -61 Z" /><glyph glyph-name="" unicode="¿" d="M272 -75 q-31 -1 -49 19 q-19 19 -20 64 q3 46 48 85 q45 38 97 62 l-22 151 l-108 0 l-19 -98 q-68 -33 -117 -91 q-50 -58 -52 -145 q3 -98 69 -142 q66 -45 153 -44 q55 0 107 15 q51 14 103 47 l-62 124 q-36 -24 -67 -35 q-30 -12 -61 -12 l0 0 ZM364 454 q-1 39 -27 65 q-26 26 -65 27 q-39 -1 -65 -27 q-26 -26 -27 -65 q1 -39 27 -65 q26 -26 65 -27 q39 1 65 27 q26 26 27 65 l0 0 Z" /><glyph glyph-name="" unicode="æ" d="M235 118 l237 0 l0 -118 l525 0 l0 148 l-337 0 l0 168 l295 0 l0 144 l-295 0 l0 140 l337 0 l0 148 l-680 0 l-327 -744 l193 -10 l52 124 ZM413 600 l59 0 l0 -338 l-187 0 l128 338 Z" /><glyph glyph-name="" unicode="ñ" d="M595 0 l112 0 l0 748 l-188 0 l0 -427 l-4 -2 l-367 429 l-108 0 l0 -748 l188 0 l0 420 l4 2 l363 -422 ZM426 942 q-55 -2 -85 -17 q-29 -16 -60 -18 q-10 0 -27 4 q-18 5 -41 21 l-28 -100 q28 -28 54 -36 q25 -9 39 -8 q43 2 79 18 q35 15 66 17 q10 1 27 -4 q18 -5 41 -21 l28 100 q-28 28 -54 36 q-25 9 -39 8 l0 0 Z" /><glyph glyph-name="" unicode="ø" d="M412 754 q-181 -3 -276 -107 q-95 -105 -96 -273 q0 -71 18 -132 q17 -61 51 -109 l-67 -68 l60 -65 l68 69 q46 -36 106 -55 q61 -20 136 -20 q181 3 276 108 q95 104 96 272 q0 72 -18 133 q-19 62 -54 111 l70 71 l-60 65 l-72 -73 q-45 35 -105 54 q-59 19 -133 19 l0 0 ZM412 142 q-38 0 -68 13 q-31 14 -53 37 l286 289 q9 -24 14 -51 q4 -27 4 -56 q0 -95 -46 -162 q-45 -67 -137 -70 l0 0 ZM229 374 q0 95 46 162 q46 67 137 70 q37 0 66 -13 q29 -12 51 -34 l-284 -288 q-8 23 -12 50 q-4 26 -4 53 l0 0 Z" /><glyph glyph-name="" unicode="ß" d="M320 795 q-100 2 -182 -47 q-83 -50 -88 -180 l0 -568 l176 0 l0 565 q3 57 35 74 q33 16 59 14 q36 1 70 -20 q34 -21 36 -75 q0 -46 -25 -71 q-25 -25 -75 -25 l-33 0 l0 -118 l49 0 q46 1 81 -23 q34 -23 36 -81 q-2 -68 -41 -87 q-39 -19 -86 -17 l-39 0 l0 -136 l123 0 q102 2 166 65 q63 63 65 156 q-1 73 -37 129 q-36 55 -93 76 l-1 4 q42 24 65 64 q23 41 23 101 q0 85 -71 142 q-71 56 -213 58 l0 0 Z" /><glyph glyph-name="" unicode="æ" d="M657 122 q-46 -1 -73 17 q-28 18 -35 69 l340 0 l7 51 q0 126 -63 196 q-63 69 -195 70 q-50 0 -93 -12 q-43 -13 -76 -37 q-33 25 -78 37 q-45 12 -98 12 q-59 0 -112 -12 q-52 -13 -103 -39 l51 -113 q41 19 72 27 q32 9 72 9 q44 1 70 -20 q26 -22 27 -75 q-24 7 -55 10 q-31 3 -49 3 q-149 -5 -190 -59 q-41 -54 -36 -97 q1 -74 53 -119 q51 -45 136 -46 q81 1 130 26 q49 25 77 56 q38 -40 95 -61 q56 -21 127 -21 q128 0 215 51 l-51 113 q-37 -18 -79 -27 q-43 -9 -86 -9 l0 0 ZM291 117 q-34 0 -52 15 q-18 15 -18 42 q-1 23 15 40 q17 16 60 17 q23 0 39 -3 q16 -4 35 -11 q-2 -57 -30 -79 q-27 -22 -49 -21 l0 0 ZM635 407 q38 0 64 -24 q26 -24 27 -71 l-175 0 q7 47 28 71 q21 24 56 24 l0 0 Z" /><glyph glyph-name="" unicode="ë" d="M327 122 q-46 -1 -73 17 q-28 18 -35 69 l340 0 l7 51 q0 126 -63 196 q-63 69 -195 70 q-123 -1 -195 -70 q-71 -70 -73 -196 q2 -126 79 -195 q77 -69 209 -70 q128 0 215 51 l-51 113 q-37 -18 -79 -27 q-43 -9 -86 -9 l0 0 ZM305 407 q38 0 64 -24 q26 -24 27 -71 l-175 0 q7 47 28 71 q21 24 56 24 l0 0 ZM212 586 q37 1 61 25 q23 24 24 61 q-1 37 -26 59 q-25 22 -61 23 q-34 -1 -57 -25 q-23 -24 -24 -57 q1 -36 24 -60 q23 -25 59 -26 l0 0 ZM420 586 q37 1 61 25 q23 24 24 61 q-1 37 -26 59 q-25 22 -61 23 q-34 -1 -57 -25 q-23 -24 -24 -57 q1 -36 24 -60 q23 -25 59 -26 l0 0 Z" /><glyph glyph-name="" unicode="÷" d="M56 275 l548 0 l0 126 l-548 0 l0 -126 ZM232 568 q1 -41 28 -69 q28 -27 69 -28 q42 1 69 28 q27 28 28 69 q-1 42 -28 70 q-27 28 -69 29 q-41 -1 -69 -29 q-27 -28 -28 -70 l0 0 ZM232 108 q1 -42 28 -70 q28 -28 69 -29 q42 1 69 29 q27 28 28 70 q-1 42 -28 69 q-27 27 -69 28 q-41 -1 -69 -28 q-27 -27 -28 -69 l0 0 Z" /><glyph glyph-name="" unicode="ø" d="M313 525 q-125 -1 -200 -69 q-76 -68 -78 -197 q0 -46 11 -85 q11 -38 32 -70 l-43 -39 l60 -65 l46 42 q35 -23 78 -36 q44 -12 94 -12 q125 1 201 71 q75 69 77 194 q0 47 -11 86 q-11 39 -32 70 l43 39 l-60 65 l-45 -42 q-35 23 -78 36 q-44 12 -95 12 l0 0 ZM415 259 q-1 -59 -28 -93 q-28 -34 -74 -35 q-32 0 -56 17 l155 142 q3 -15 3 -31 l0 0 ZM313 388 q32 0 55 -18 l-155 -142 q-2 15 -2 31 q1 60 29 94 q27 34 73 35 l0 0 Z" /><glyph glyph-name="" unicode="ÿ" d="M269 -214 l315 733 l-192 6 l-103 -306 l-4 0 l-103 306 l-192 -6 l210 -489 l-102 -238 l171 -6 ZM205 586 q37 1 61 25 q23 24 24 61 q-1 37 -26 59 q-25 22 -61 23 q-34 -1 -57 -25 q-23 -24 -24 -57 q1 -36 24 -60 q23 -25 59 -26 l0 0 ZM413 586 q37 1 61 25 q23 24 24 61 q-1 37 -26 59 q-25 22 -61 23 q-34 -1 -57 -25 q-23 -24 -24 -57 q1 -36 24 -60 q23 -25 59 -26 l0 0 Z" /><glyph glyph-name="" unicode="&#x131;" d="M236 0 l0 519 l-176 0 l0 -519 l176 0 Z" /><glyph glyph-name="" unicode="&#x152;" d="M492 156 q-24 -7 -41 -8 q-17 -2 -39 -2 q-91 3 -137 68 q-46 66 -46 160 q0 94 46 160 q46 65 137 68 q22 0 39 -2 q17 -1 41 -8 l0 -436 ZM492 748 q-38 6 -80 6 q-181 -3 -276 -107 q-95 -105 -96 -273 q1 -168 96 -272 q95 -105 276 -108 q42 0 80 6 l545 0 l0 148 l-357 0 l0 168 l315 0 l0 144 l-315 0 l0 140 l357 0 l0 148 l-545 0 Z" /><glyph glyph-name="" unicode="&#x153;" d="M318 525 q-125 -1 -200 -69 q-76 -68 -78 -197 q2 -125 78 -194 q75 -70 200 -71 q57 0 105 16 q48 16 84 45 q38 -30 88 -45 q51 -16 112 -16 q128 0 215 51 l-51 113 q-37 -18 -79 -27 q-43 -9 -86 -9 q-46 -1 -73 17 q-28 18 -35 69 l340 0 l7 51 q0 126 -63 196 q-63 69 -195 70 q-56 0 -101 -15 q-45 -15 -80 -44 q-36 29 -84 44 q-48 15 -104 15 l0 0 ZM318 388 q46 -1 74 -35 q27 -34 28 -94 q-1 -59 -28 -93 q-28 -34 -74 -35 q-46 1 -73 35 q-28 34 -29 93 q1 60 29 94 q27 34 73 35 l0 0 ZM684 407 q38 0 64 -24 q26 -24 27 -71 l-175 0 q7 47 28 71 q21 24 56 24 l0 0 Z" /><glyph glyph-name="" unicode="&#x178;" d="M676 748 l-221 6 l-120 -317 l-4 0 l-120 317 l-221 -6 l249 -469 l0 -279 l188 0 l0 284 l249 464 ZM228 798 q37 1 61 25 q23 24 24 61 q-1 37 -26 59 q-25 22 -61 23 q-34 -1 -57 -25 q-23 -24 -24 -57 q1 -36 24 -60 q23 -25 59 -26 l0 0 ZM436 798 q37 1 61 25 q23 24 24 61 q-1 37 -26 59 q-25 22 -61 23 q-34 -1 -57 -25 q-23 -24 -24 -57 q1 -36 24 -60 q23 -25 59 -26 l0 0 Z" /><glyph glyph-name="" unicode="&#x192;" d="M139 471 l0 -102 l124 0 l-38 -221 q-12 -70 -37 -96 q-25 -26 -67 -25 q-15 0 -30 4 q-16 4 -28 9 l-47 -147 q27 -12 58 -19 q30 -7 78 -7 q87 1 152 58 q65 58 86 165 l49 279 l127 0 l19 102 l-128 0 l17 102 q2 19 16 40 q13 21 45 23 q19 0 35 -3 q16 -4 32 -11 l41 136 q-22 16 -62 24 q-40 8 -68 8 q-78 -1 -134 -50 q-56 -50 -74 -140 l-23 -129 l-143 0 Z" /><glyph glyph-name="" unicode="&#x2c6;" d="M10 585 l114 0 l62 70 l62 -70 l114 0 l-104 163 l-144 0 l-104 -163 Z" /><glyph glyph-name="" unicode="&#x2c7;" d="M114 585 l144 0 l104 163 l-114 0 l-62 -70 l-62 70 l-114 0 l104 -163 Z" /><glyph glyph-name="" unicode="&#x2d8;" d="M185 681 q-31 1 -54 19 q-24 18 -31 48 l-90 0 q6 -79 52 -121 q47 -42 123 -42 q76 0 123 42 q47 42 52 121 l-90 0 q-7 -30 -30 -48 q-24 -18 -55 -19 l0 0 Z" /><glyph glyph-name="" unicode="&#x2d9;" d="M93 580 q37 1 61 25 q23 24 24 61 q-1 37 -26 59 q-25 22 -61 23 q-34 -1 -57 -25 q-23 -24 -24 -57 q1 -36 24 -60 q23 -25 59 -26 l0 0 Z" /><glyph glyph-name="" unicode="&#x2da;" d="M121 545 q47 1 78 33 q32 31 33 78 q-1 47 -33 78 q-31 32 -78 33 q-47 -1 -78 -33 q-32 -31 -33 -78 q1 -47 33 -78 q31 -32 78 -33 l0 0 ZM70 656 q1 22 15 36 q14 14 36 15 q22 -1 36 -15 q14 -14 15 -36 q-1 -22 -15 -36 q-14 -14 -36 -15 q-22 1 -36 15 q-14 14 -15 36 l0 0 Z" /><glyph glyph-name="" unicode="&#x2db;" d="M225 -100 q-36 0 -63 12 q-26 11 -27 36 q0 19 11 31 q11 12 29 21 l-20 60 q-50 -10 -96 -44 q-46 -35 -49 -94 q3 -62 56 -93 q54 -32 122 -32 l37 103 Z" /><glyph glyph-name="" unicode="&#x2dc;" d="M251 743 q-55 -2 -85 -17 q-29 -16 -60 -18 q-10 0 -27 4 q-18 5 -41 21 l-28 -100 q28 -28 54 -36 q25 -9 39 -8 q43 2 79 18 q35 15 66 17 q10 1 27 -4 q18 -5 41 -21 l28 100 q-28 28 -54 36 q-25 9 -39 8 l0 0 Z" /><glyph glyph-name="" unicode="&#x2dd;" d="M245 585 l129 0 l104 163 l-169 0 l-64 -163 ZM10 585 l129 0 l104 163 l-169 0 l-64 -163 Z" /><glyph glyph-name="" unicode="&#x3a9;" d="M390 754 q-159 -3 -251 -95 q-93 -91 -95 -228 q2 -96 40 -165 q38 -69 88 -114 l0 -4 l-132 0 l0 -148 l300 0 l0 123 q-40 45 -73 111 q-33 65 -35 155 q0 92 41 153 q40 62 116 64 q76 -2 116 -64 q41 -61 41 -153 q-2 -90 -35 -155 q-33 -66 -73 -111 l0 -123 l300 0 l0 148 l-132 0 l0 4 q50 45 88 114 q38 69 40 165 q-2 137 -94 228 q-93 92 -250 95 l0 0 Z" /><glyph glyph-name="" unicode="&#x3c0;" d="M437 383 l0 -238 q0 -36 3 -77 q4 -40 9 -68 l178 0 q-6 21 -10 63 q-4 42 -4 82 l0 238 l83 0 l0 136 l-451 0 q-81 0 -134 -11 q-53 -11 -91 -30 l30 -133 q18 8 45 17 q26 10 59 16 q-8 -103 -25 -207 q-17 -103 -39 -171 l168 0 q23 73 39 177 q16 104 24 206 l116 0 Z" /><glyph glyph-name="" unicode="&#xfb01;" d="M633 0 l0 519 l-364 0 l0 54 q-1 46 24 62 q24 17 83 16 q47 -2 114 -21 q67 -18 96 -30 l37 124 q-43 25 -126 48 q-83 22 -135 23 q-118 3 -192 -42 q-75 -45 -77 -175 l0 -59 l-83 0 l0 -120 l83 0 l0 -399 l176 0 l0 399 l188 0 l0 -399 l176 0 Z" /><glyph glyph-name="" unicode="&#xfb02;" d="M634 719 q-50 27 -135 51 q-85 23 -137 25 q-118 3 -192 -42 q-75 -45 -77 -175 l0 -59 l-83 0 l0 -120 l83 0 l0 -399 l176 0 l0 399 l108 0 l0 120 l-108 0 l0 54 q-1 46 24 62 q24 17 83 16 q16 0 37 -4 q22 -4 45 -9 l0 -420 q0 -113 43 -170 q43 -56 133 -56 q8 0 23 2 q15 2 28 6 l25 134 q-47 1 -62 25 q-15 23 -14 63 l0 497 Z" /><glyph glyph-name="" unicode="&#x2013;" d="M0 229 l500 0 l0 126 l-500 0 l0 -126 Z" /><glyph glyph-name="" unicode="&#x2014;" d="M0 229 l766 0 l0 126 l-766 0 l0 -126 Z" /><glyph glyph-name="" unicode="&#x2018;" d="M243 499 q-1 37 -25 66 q-23 28 -58 30 l66 134 l-76 25 q-42 -53 -70 -122 q-29 -69 -30 -133 q1 -42 28 -70 q28 -28 69 -29 q41 1 68 29 q27 28 28 70 l0 0 Z" /><glyph glyph-name="" unicode="&#x2019;" d="M40 655 q1 -37 25 -66 q23 -28 58 -30 l-66 -134 l76 -25 q42 53 70 122 q29 69 30 133 q-1 42 -28 70 q-27 28 -69 29 q-41 -1 -68 -29 q-27 -28 -28 -70 l0 0 Z" /><glyph glyph-name="" unicode="&#x201a;" d="M60 91 q1 -37 25 -66 q23 -28 58 -30 l-66 -134 l76 -25 q42 53 70 122 q29 69 30 133 q-1 42 -28 70 q-27 28 -69 29 q-41 -1 -68 -29 q-27 -28 -28 -70 l0 0 Z" /><glyph glyph-name="" unicode="&#x201c;" d="M243 499 q-1 37 -25 66 q-23 28 -58 30 l66 134 l-76 25 q-42 -53 -70 -122 q-29 -69 -30 -133 q1 -42 28 -70 q28 -28 69 -29 q41 1 68 29 q27 28 28 70 l0 0 ZM503 499 q-1 37 -25 66 q-23 28 -58 30 l66 134 l-76 25 q-42 -53 -70 -122 q-29 -69 -30 -133 q1 -42 28 -70 q28 -28 69 -29 q41 1 68 29 q27 28 28 70 l0 0 Z" /><glyph glyph-name="" unicode="&#x201d;" d="M300 655 q1 -37 25 -66 q23 -28 58 -30 l-66 -134 l76 -25 q42 53 70 122 q29 69 30 133 q-1 42 -28 70 q-27 28 -69 29 q-41 -1 -68 -29 q-27 -28 -28 -70 l0 0 ZM40 655 q1 -37 25 -66 q23 -28 58 -30 l-66 -134 l76 -25 q42 53 70 122 q29 69 30 133 q-1 42 -28 70 q-27 28 -69 29 q-41 -1 -68 -29 q-27 -28 -28 -70 l0 0 Z" /><glyph glyph-name="" unicode="&#x201e;" d="M320 91 q1 -37 25 -66 q23 -28 58 -30 l-66 -134 l76 -25 q42 53 70 122 q29 69 30 133 q-1 42 -28 70 q-27 28 -69 29 q-41 -1 -68 -29 q-27 -28 -28 -70 l0 0 ZM60 91 q1 -37 25 -66 q23 -28 58 -30 l-66 -134 l76 -25 q42 53 70 122 q29 69 30 133 q-1 42 -28 70 q-27 28 -69 29 q-41 -1 -68 -29 q-27 -28 -28 -70 l0 0 Z" /><glyph glyph-name="" unicode="&#x2020;" d="M343 -78 l-20 533 l178 -20 l0 148 l-178 -20 l20 185 l-148 0 l20 -185 l-175 20 l0 -148 l175 20 l-20 -533 l148 0 Z" /><glyph glyph-name="" unicode="&#x2021;" d="M323 215 l0 240 l178 -20 l0 148 l-178 -20 l20 185 l-148 0 l20 -185 l-175 20 l0 -148 l175 20 l0 -240 l-175 20 l0 -148 l175 20 l-20 -185 l148 0 l-20 185 l178 -20 l0 148 l-178 -20 Z" /><glyph glyph-name="" unicode="&#x2022;" d="M328 374 q-1 60 -41 100 q-40 40 -100 42 q-60 -2 -100 -42 q-39 -40 -41 -100 q2 -60 41 -99 q40 -40 100 -41 q60 1 100 41 q40 39 41 99 l0 0 Z" /><glyph glyph-name="" unicode="&#x2026;" d="M60 91 q1 -41 28 -69 q28 -27 69 -28 q42 1 69 28 q27 28 28 69 q-1 42 -28 70 q-27 28 -69 29 q-41 -1 -69 -29 q-27 -28 -28 -70 l0 0 ZM370 91 q1 -41 28 -69 q28 -27 69 -28 q42 1 69 28 q27 28 28 69 q-1 42 -28 70 q-27 28 -69 29 q-41 -1 -69 -29 q-27 -28 -28 -70 l0 0 ZM680 91 q1 -41 28 -69 q28 -27 69 -28 q42 1 69 28 q27 28 28 69 q-1 42 -28 70 q-27 28 -69 29 q-41 -1 -69 -29 q-27 -28 -28 -70 l0 0 Z" /><glyph glyph-name="" unicode="&#x2030;" d="M39 556 q2 -84 58 -140 q56 -56 140 -58 q83 2 140 58 q56 56 58 140 q-2 83 -58 140 q-57 56 -140 58 q-84 -2 -140 -58 q-56 -57 -58 -140 l0 0 ZM543 191 q2 -83 58 -139 q56 -56 139 -58 q84 2 140 58 q57 56 59 139 q-2 84 -59 140 q-56 57 -140 59 q-83 -2 -139 -59 q-56 -56 -58 -140 l0 0 ZM142 556 q1 40 28 67 q26 27 67 28 q40 -1 67 -28 q27 -27 28 -67 q-1 -41 -28 -67 q-27 -27 -67 -28 q-41 1 -67 28 q-27 26 -28 67 l0 0 ZM646 191 q1 41 28 68 q26 27 66 28 q41 -1 68 -28 q27 -27 28 -68 q-1 -40 -28 -66 q-27 -27 -68 -28 q-40 1 -66 28 q-27 26 -28 66 l0 0 ZM1004 191 q2 -83 58 -139 q56 -56 139 -58 q84 2 140 58 q57 56 59 139 q-2 84 -59 140 q-56 57 -140 59 q-83 -2 -139 -59 q-56 -56 -58 -140 l0 0 ZM1107 191 q1 41 28 68 q26 27 66 28 q41 -1 68 -28 q27 -27 28 -68 q-1 -40 -28 -66 q-27 -27 -68 -28 q-40 1 -66 28 q-27 26 -28 66 l0 0 ZM769 748 l-103 6 l-463 -754 l98 -6 l468 754 Z" /><glyph glyph-name="" unicode="&#x2039;" d="M221 598 l-161 -231 l0 -8 l161 -229 l91 61 l-116 173 l116 173 l-91 61 Z" /><glyph glyph-name="" unicode="&#x203a;" d="M70 537 l116 -173 l-116 -173 l91 -61 l161 229 l0 8 l-161 231 l-91 -61 Z" /><glyph glyph-name="" unicode="&#x2044;" d="M-150 0 l97 -6 l469 754 l-107 6 l-459 -754 Z" /><glyph glyph-name="" unicode="&#x20ac;" d="M112 406 q-1 -7 -1 -15 q0 -8 0 -18 q0 -21 2 -39 l-37 0 l-24 -88 l71 0 q22 -121 92 -185 q69 -65 188 -66 q58 0 108 18 q49 17 96 47 l-68 136 q-33 -28 -67 -41 q-34 -13 -69 -13 q-39 0 -63 27 q-25 26 -37 77 l128 0 l24 88 l-163 0 q-2 18 -2 39 q0 10 0 18 q0 8 1 15 l181 0 l24 88 l-196 0 q11 58 37 86 q25 27 66 27 q35 0 69 -13 q34 -13 67 -41 l68 136 q-47 30 -96 48 q-50 17 -108 17 q-121 0 -191 -67 q-70 -66 -90 -193 l-46 0 l-24 -88 l60 0 Z" /><glyph glyph-name="" unicode="&#x2122;" d="M579 456 l95 144 l4 -1 l0 -190 l82 0 l0 339 l-68 0 l-117 -178 l-116 178 l-68 0 l0 -339 l82 0 l0 190 l4 1 l94 -144 l8 0 ZM351 748 l-301 0 l0 -68 l109 0 l0 -271 l82 0 l0 271 l110 0 l0 68 Z" /><glyph glyph-name="" unicode="&#x2202;" d="M284 525 q-110 -1 -176 -70 q-66 -70 -68 -196 q2 -126 74 -195 q71 -69 190 -70 q142 -2 218 80 q76 81 77 268 q-4 265 -88 362 q-84 96 -205 91 q-70 -1 -126 -21 q-56 -20 -87 -42 l51 -118 q23 16 60 29 q38 13 92 14 q46 2 84 -35 q38 -37 47 -131 l-3 -1 q-21 17 -56 26 q-36 9 -84 9 l0 0 ZM334 387 q30 0 51 -11 q22 -12 38 -35 q2 -29 2 -56 q1 -65 -20 -108 q-21 -43 -71 -45 q-52 0 -83 32 q-32 33 -33 95 q1 62 33 95 q31 33 83 33 l0 0 Z" /><glyph glyph-name="" unicode="&#x2206;" d="M404 499 l4 0 l136 -351 l-274 0 l134 351 ZM791 0 l1 3 l-325 745 l-122 0 l-325 -745 l1 -3 l770 0 Z" /><glyph glyph-name="" unicode="&#x220f;" d="M763 600 l0 148 l-723 0 l0 -148 l82 0 l0 -600 l188 0 l0 600 l184 0 l0 -600 l188 0 l0 600 l81 0 Z" /><glyph glyph-name="" unicode="&#x2211;" d="M306 595 l1 5 l294 0 l0 148 l-551 0 l-10 -63 l203 -309 l-213 -313 l10 -63 l572 0 l0 148 l-314 0 l-1 5 l144 218 l-135 224 Z" /><glyph glyph-name="" unicode="&#x221a;" d="M643 846 l-116 0 l-223 -823 l-4 0 l-99 392 l-201 0 l0 -117 l100 0 l127 -453 l149 0 l267 1001 Z" /><glyph glyph-name="" unicode="&#x221e;" d="M194 173 q54 1 102 29 q48 28 93 75 q46 -47 94 -75 q48 -28 102 -29 q71 2 117 47 q45 45 47 116 q-2 71 -47 116 q-46 45 -117 47 q-54 -1 -102 -29 q-48 -29 -94 -76 q-45 47 -93 76 q-48 28 -102 29 q-71 -2 -116 -47 q-46 -45 -48 -116 q2 -71 48 -116 q45 -45 116 -47 l0 0 ZM194 263 q-32 1 -52 21 q-21 21 -22 52 q1 31 22 52 q20 20 52 21 q43 -1 75 -21 q32 -21 58 -52 q-26 -31 -58 -51 q-32 -21 -75 -22 l0 0 ZM585 263 q-43 1 -75 22 q-31 20 -58 51 q27 31 58 52 q32 20 75 21 q32 -1 52 -21 q21 -21 22 -52 q-1 -31 -22 -52 q-20 -20 -52 -21 l0 0 Z" /><glyph glyph-name="" unicode="&#x222b;" d="M136 21 q0 -17 -10 -27 q-10 -10 -27 -10 l-79 0 l0 -116 l79 0 q76 1 119 44 q43 43 44 119 l0 737 q0 17 10 27 q10 10 27 10 l79 0 l0 116 l-79 0 q-76 -1 -119 -44 q-43 -43 -44 -119 l0 -737 Z" /><glyph glyph-name="" unicode="&#x2248;" d="M72 416 q46 -31 77 -45 q32 -13 74 -13 q69 3 115 24 q47 20 87 23 q29 -2 59 -18 q29 -17 40 -25 l63 107 q-46 31 -80 47 q-35 15 -84 15 q-68 -3 -113 -23 q-46 -21 -89 -24 q-29 2 -53 17 q-24 15 -35 23 l-61 -108 ZM72 204 q46 -31 77 -45 q32 -13 74 -13 q69 3 115 24 q47 20 87 23 q29 -2 59 -18 q29 -17 40 -25 l63 107 q-46 31 -80 47 q-35 15 -84 15 q-68 -3 -113 -23 q-46 -21 -89 -24 q-29 2 -53 17 q-24 15 -35 23 l-61 -108 Z" /><glyph glyph-name="" unicode="&#x2260;" d="M56 169 l94 0 l2 -4 l-54 -68 l52 -40 l89 112 l365 0 l0 126 l-263 0 l-2 4 l66 82 l199 0 l0 126 l-94 0 l-2 4 l54 68 l-52 40 l-89 -112 l-365 0 l0 -126 l260 0 l2 -4 l-66 -82 l-196 0 l0 -126 Z" /><glyph glyph-name="" unicode="&#x2264;" d="M584 627 l-508 -158 l0 -126 l508 -158 l0 136 l-349 83 l0 4 l349 83 l0 136 ZM76 10 l508 0 l0 126 l-508 0 l0 -126 Z" /><glyph glyph-name="" unicode="&#x2265;" d="M584 136 l-508 0 l0 -126 l508 0 l0 126 ZM76 491 l349 -83 l0 -4 l-349 -83 l0 -136 l508 158 l0 126 l-508 158 l0 -136 Z" /><glyph glyph-name="" unicode="&#x25ca;" d="M581 374 l-214 403 l-109 0 l-218 -403 l214 -403 l108 0 l219 403 ZM438 372 l-127 -234 l-129 238 l129 231 l127 -235 Z" /><glyph glyph-name="" unicode="¦" d="M50 806 l0 -399 l126 0 l0 399 l-126 0 ZM50 244 l0 -399 l126 0 l0 399 l-126 0 Z" /><glyph glyph-name="" unicode="²" d="M368 618 q-1 57 -46 93 q-46 36 -126 37 q-29 1 -73 -7 q-45 -9 -92 -40 l43 -95 q23 13 45 21 q23 9 45 9 q27 0 42 -11 q16 -11 16 -36 q-8 -68 -77 -128 q-70 -61 -111 -87 l0 -84 l329 0 l0 114 l-167 0 l-1 3 q47 19 107 71 q60 51 66 140 l0 0 Z" /><glyph glyph-name="" unicode="³" d="M129 475 l29 0 q35 -1 47 -15 q11 -13 10 -28 q0 -15 -10 -23 q-10 -9 -29 -9 q-21 1 -44 12 q-24 11 -44 24 l-50 -101 q78 -45 148 -45 q84 2 129 40 q45 39 46 95 q1 28 -19 56 q-20 27 -68 40 l0 4 q41 18 57 43 q16 25 15 59 q-2 59 -48 90 q-46 31 -112 31 q-34 0 -72 -11 q-38 -12 -73 -36 l44 -95 q25 16 44 21 q20 5 31 5 q18 0 29 -9 q12 -9 12 -27 q-1 -16 -13 -23 q-13 -8 -32 -8 l-27 0 l0 -90 Z" /><glyph glyph-name="" unicode="¹" d="M321 748 l-89 0 l-165 -96 l37 -81 l71 18 l0 -299 l146 0 l0 458 Z" /><glyph glyph-name="" unicode="¼" d="M232 0 l97 -6 l469 754 l-107 6 l-459 -754 ZM321 748 l-89 0 l-165 -96 l37 -81 l71 18 l0 -299 l146 0 l0 458 ZM705 187 l-1 3 l50 115 l3 -1 l0 -117 l-52 0 ZM885 459 l-141 0 l-179 -289 l5 -80 l187 0 l0 -89 l128 0 l0 89 l48 0 l0 97 l-48 0 l0 272 Z" /><glyph glyph-name="" unicode="½" d="M965 328 q-1 57 -46 93 q-46 36 -126 37 q-29 1 -73 -7 q-45 -9 -92 -40 l43 -95 q23 13 45 21 q23 9 45 9 q27 0 42 -11 q16 -11 16 -36 q-8 -68 -77 -128 q-70 -61 -111 -87 l0 -84 l329 0 l0 114 l-167 0 l-1 3 q47 19 107 71 q60 51 66 140 l0 0 ZM200 0 l97 -6 l469 754 l-107 6 l-459 -754 ZM289 748 l-89 0 l-165 -96 l37 -81 l71 18 l0 -299 l146 0 l0 458 Z" /><glyph glyph-name="" unicode="¾" d="M246 0 l97 -6 l469 754 l-107 6 l-459 -754 ZM143 475 l29 0 q35 -1 47 -15 q11 -13 10 -28 q0 -15 -10 -23 q-10 -9 -29 -9 q-21 1 -44 12 q-24 11 -44 24 l-50 -101 q78 -45 148 -45 q84 2 129 40 q45 39 46 95 q1 28 -19 56 q-20 27 -68 40 l0 4 q41 18 57 43 q16 25 15 59 q-2 59 -48 90 q-46 31 -112 31 q-34 0 -72 -11 q-38 -12 -73 -36 l44 -95 q25 16 44 21 q20 5 31 5 q18 0 29 -9 q12 -9 12 -27 q-1 -16 -13 -23 q-13 -8 -32 -8 l-27 0 l0 -90 ZM719 187 l-1 3 l50 115 l3 -1 l0 -117 l-52 0 ZM899 459 l-141 0 l-179 -289 l5 -80 l187 0 l0 -89 l128 0 l0 89 l48 0 l0 97 l-48 0 l0 272 Z" /><glyph glyph-name="" unicode="ð" d="M20 301 l79 0 l0 -301 l274 0 q182 4 273 108 q92 105 92 266 q0 161 -92 266 q-91 104 -273 108 l-274 0 l0 -303 l-79 0 l0 -144 ZM353 600 q97 -1 147 -59 q50 -59 50 -167 q0 -107 -50 -166 q-51 -59 -147 -60 l-66 0 l0 153 l124 0 l0 144 l-124 0 l0 155 l66 0 Z" /><glyph glyph-name="" unicode="×" d="M160 78 l170 171 l170 -171 l90 90 l-171 170 l171 170 l-90 90 l-170 -171 l-170 171 l-90 -90 l171 -170 l-171 -170 l90 -90 Z" /><glyph glyph-name="" unicode="ý" d="M676 748 l-221 6 l-120 -317 l-4 0 l-120 317 l-221 -6 l249 -469 l0 -279 l188 0 l0 284 l249 464 ZM265 795 l144 0 l124 163 l-184 0 l-84 -163 Z" /><glyph glyph-name="" unicode="þ" d="M248 748 l-188 0 l0 -748 l188 0 l0 90 l103 0 q123 3 206 82 q83 80 86 202 q-3 122 -86 202 q-83 79 -206 82 l-103 0 l0 90 ZM248 504 l73 0 q58 -1 96 -37 q37 -36 38 -93 q-1 -57 -38 -93 q-38 -36 -96 -37 l-73 0 l0 260 Z" /><glyph glyph-name="" unicode="ð" d="M572 709 l-65 62 l-112 -53 q-50 32 -83 48 q-34 15 -73 29 l-75 -107 q20 -8 42 -19 q21 -11 41 -22 l-97 -44 l60 -65 l115 54 q34 -27 61 -62 q27 -35 42 -79 l-3 -1 q-21 21 -57 33 q-36 12 -84 12 q-110 -1 -176 -62 q-66 -61 -68 -174 q2 -126 74 -195 q71 -69 190 -70 q142 -2 218 80 q76 81 77 268 q-1 109 -38 188 q-37 78 -92 130 l103 49 ZM334 362 q30 0 51 -14 q22 -13 38 -37 q1 -10 1 -18 q1 -9 1 -18 q1 -61 -25 -101 q-25 -40 -86 -42 q-43 0 -69 30 q-26 30 -27 87 q1 53 33 83 q31 30 83 30 l0 0 Z" /><glyph glyph-name="" unicode="ý" d="M279 -214 l315 733 l-192 6 l-103 -306 l-4 0 l-103 306 l-192 -6 l210 -489 l-102 -238 l171 -6 ZM218 585 l144 0 l124 163 l-184 0 l-84 -163 Z" /><glyph glyph-name="" unicode="þ" d="M60 -208 l176 0 l0 235 l3 1 q26 -17 52 -26 q26 -8 50 -8 q105 1 166 70 q61 70 62 196 q-1 126 -62 196 q-61 69 -166 70 q-24 0 -50 -8 q-26 -9 -52 -26 l-3 1 l0 302 l-176 0 l0 -1003 ZM236 352 q18 13 38 19 q19 7 48 7 q30 0 50 -30 q20 -30 21 -88 q-1 -58 -20 -88 q-20 -30 -51 -30 q-29 0 -48 7 q-20 6 -38 19 l0 184 Z" /><glyph glyph-name="" unicode="&#x141;" d="M477 534 l0 125 l-4 2 l-205 -179 l0 266 l-188 0 l0 -430 l-60 -52 l0 -127 l4 -2 l56 49 l0 -186 l505 0 l0 148 l-317 0 l0 203 l209 183 Z" /><glyph glyph-name="" unicode="&#x142;" d="M286 431 l106 93 l0 125 l-4 2 l-102 -89 l0 233 l-176 0 l0 -385 l-90 -78 l0 -127 l4 -2 l86 75 l0 -60 q0 -113 43 -170 q43 -56 133 -56 q8 0 23 2 q15 2 28 6 l25 134 q-47 1 -62 25 q-15 23 -14 63 l0 209 Z" /><glyph glyph-name="" unicode="&#x160;" d="M314 147 q-48 1 -101 23 q-54 22 -99 55 l-74 -146 q60 -39 124 -62 q64 -23 140 -23 q139 0 214 58 q74 57 75 170 q-22 163 -178 214 q-156 51 -178 114 q0 20 21 33 q21 14 61 14 q47 -1 96 -21 q49 -20 94 -53 l74 146 q-58 39 -119 62 q-62 23 -135 23 q-142 -2 -211 -62 q-69 -60 -69 -152 q22 -176 178 -223 q156 -48 178 -110 q-1 -30 -26 -45 q-25 -15 -65 -15 l0 0 ZM286 795 l144 0 l104 163 l-114 0 l-62 -70 l-62 70 l-114 0 l104 -163 Z" /><glyph glyph-name="" unicode="&#x161;" d="M274 161 q0 -16 -17 -22 q-17 -7 -47 -7 q-16 -1 -44 4 q-28 4 -75 22 l-51 -113 q47 -27 92 -39 q45 -12 91 -12 q98 0 156 44 q59 44 60 128 q-14 119 -114 149 q-101 31 -115 53 q1 17 20 21 q19 4 39 3 q12 0 41 -6 q29 -6 66 -24 l51 118 q-45 27 -87 36 q-43 10 -86 9 q-105 -2 -154 -50 q-50 -47 -49 -110 q14 -118 112 -147 q97 -28 111 -57 l0 0 ZM172 585 l144 0 l104 163 l-114 0 l-62 -70 l-62 70 l-114 0 l104 -163 Z" /><glyph glyph-name="" unicode="&#x17d;" d="M30 63 l0 -63 l606 0 l0 148 l-342 0 l348 537 l0 63 l-581 0 l0 -148 l318 0 l-349 -537 ZM288 815 l144 0 l104 163 l-114 0 l-62 -70 l-62 70 l-114 0 l104 -163 Z" /><glyph glyph-name="" unicode="&#x17e;" d="M487 431 l0 88 l-460 0 l0 -136 l221 0 l-232 -295 l0 -88 l471 0 l0 136 l-222 0 l222 295 ZM222 585 l144 0 l104 163 l-114 0 l-62 -70 l-62 70 l-114 0 l104 -163 Z" /><glyph glyph-name="" unicode="&#x2212;" d="M56 275 l548 0 l0 126 l-548 0 l0 -126 Z" /><glyph glyph-name="" unicode="&#x106;" d="M319 795 l144 0 l124 163 l-184 0 l-84 -163 ZM679 679 q-58 35 -119 55 q-62 20 -135 20 q-192 -4 -288 -111 q-97 -107 -97 -269 q0 -162 97 -269 q96 -107 288 -111 q73 0 135 20 q61 20 119 55 l-74 151 q-42 -32 -85 -49 q-44 -17 -95 -17 q-96 2 -146 65 q-51 62 -51 155 q0 94 51 156 q50 62 146 64 q51 0 95 -17 q43 -17 85 -49 l74 151 Z" /><glyph glyph-name="" unicode="&#x10c;" d="M344 795 l144 0 l104 163 l-114 0 l-62 -70 l-62 70 l-114 0 l104 -163 ZM679 679 q-58 35 -119 55 q-62 20 -135 20 q-192 -4 -288 -111 q-97 -107 -97 -269 q0 -162 97 -269 q96 -107 288 -111 q73 0 135 20 q61 20 119 55 l-74 151 q-42 -32 -85 -49 q-44 -17 -95 -17 q-96 2 -146 65 q-51 62 -51 155 q0 94 51 156 q50 62 146 64 q51 0 95 -17 q43 -17 85 -49 l74 151 Z" /><glyph glyph-name="" unicode="&#x110;" d="M20 301 l79 0 l0 -301 l274 0 q182 4 273 108 q92 105 92 266 q0 161 -92 266 q-91 104 -273 108 l-274 0 l0 -303 l-79 0 l0 -144 ZM353 600 q97 -1 147 -59 q50 -59 50 -167 q0 -107 -50 -166 q-51 -59 -147 -60 l-66 0 l0 153 l124 0 l0 144 l-124 0 l0 155 l66 0 Z" /><glyph glyph-name="" unicode="&#x107;" d="M216 259 q1 63 30 96 q28 32 71 32 q48 -1 81 -13 q33 -13 63 -32 l67 132 q-39 26 -85 38 q-45 13 -125 13 q-128 -1 -202 -70 q-74 -70 -76 -196 q2 -126 76 -195 q74 -69 202 -70 q80 0 125 13 q46 13 85 38 l-67 132 q-30 -19 -63 -31 q-33 -13 -81 -14 q-43 0 -71 32 q-29 32 -30 95 l0 0 ZM223 585 l144 0 l124 163 l-184 0 l-84 -163 Z" /><glyph glyph-name="" unicode="&#x10d;" d="M216 259 q1 63 30 96 q28 32 71 32 q48 -1 81 -13 q33 -13 63 -32 l67 132 q-39 26 -85 38 q-45 13 -125 13 q-128 -1 -202 -70 q-74 -70 -76 -196 q2 -126 76 -195 q74 -69 202 -70 q80 0 125 13 q46 13 85 38 l-67 132 q-30 -19 -63 -31 q-33 -13 -81 -14 q-43 0 -71 32 q-29 32 -30 95 l0 0 ZM244 585 l144 0 l104 163 l-114 0 l-62 -70 l-62 70 l-114 0 l104 -163 Z" /><glyph glyph-name="" unicode="&#x111;" d="M258 689 l0 -88 l150 0 l0 -109 l-3 -1 q-27 17 -53 26 q-26 8 -59 8 q-118 -1 -187 -70 q-69 -70 -71 -196 q3 -126 68 -195 q65 -69 161 -70 q49 1 85 20 q36 19 65 48 l4 -1 l20 -61 l146 0 l0 601 l63 0 l0 88 l-63 0 l0 106 l-176 0 l0 -106 l-150 0 ZM408 203 q-14 -25 -39 -42 q-25 -18 -57 -19 q-43 0 -71 30 q-29 29 -30 87 q1 58 30 88 q29 30 71 30 q32 0 54 -7 q22 -6 42 -19 l0 -148 Z" /><glyph glyph-name="" unicode="&#x403;" d="M565 600 l0 148 l-505 0 l0 -748 l188 0 l0 600 l317 0 ZM241 795 l144 0 l124 163 l-184 0 l-84 -163 Z" /><glyph glyph-name="" unicode="&#x405;" d="M294 141 q-45 1 -91 24 q-47 23 -89 60 l-74 -146 q58 -39 120 -62 q61 -23 134 -23 q144 1 226 63 q82 62 83 175 q-23 161 -183 205 q-160 44 -183 113 q0 24 24 40 q24 16 68 17 q45 -1 91 -24 q47 -23 89 -60 l74 146 q-58 39 -119 62 q-62 23 -135 23 q-142 -2 -211 -62 q-69 -60 -69 -152 q22 -162 178 -211 q156 -49 178 -112 q0 -36 -30 -56 q-29 -20 -81 -20 l0 0 Z" /><glyph glyph-name="" unicode="&#x408;" d="M10 38 q38 -20 80 -32 q42 -12 89 -12 q120 -1 192 67 q71 69 73 223 l0 464 l-188 0 l0 -479 q0 -59 -21 -86 q-21 -26 -56 -26 q-25 0 -48 7 q-23 7 -47 25 l-74 -151 Z" /><glyph glyph-name="" unicode="&#x409;" d="M480 0 l286 0 q130 2 198 64 q68 62 68 167 q0 101 -68 164 q-68 63 -198 65 l-98 0 l0 288 l-507 0 l-11 -257 q-4 -177 -30 -267 q-25 -90 -110 -90 l25 -143 q13 -4 28 -6 q15 -2 23 -2 q132 3 182 122 q50 120 56 319 l9 176 l147 0 l0 -600 ZM740 316 q45 0 74 -22 q29 -23 30 -62 q2 -28 -20 -55 q-21 -27 -85 -29 l-71 0 l0 168 l72 0 Z" /><glyph glyph-name="" unicode="&#x40a;" d="M687 460 l0 288 l-188 0 l0 -288 l-251 0 l0 288 l-188 0 l0 -748 l188 0 l0 316 l251 0 l0 -316 l287 0 q130 2 198 64 q68 62 68 167 q0 101 -68 164 q-68 63 -198 65 l-99 0 ZM760 316 q45 0 74 -22 q29 -23 30 -62 q2 -28 -20 -55 q-21 -27 -85 -29 l-72 0 l0 168 l73 0 Z" /><glyph glyph-name="" unicode="&#x40c;" d="M248 748 l-188 0 l0 -748 l188 0 l0 299 l71 0 l194 -305 l209 6 l-254 371 l212 377 l-204 6 l-158 -311 l-70 0 l0 305 ZM291 795 l144 0 l124 163 l-184 0 l-84 -163 Z" /><glyph glyph-name="" unicode="&#x40f;" d="M60 748 l0 -748 l248 0 l0 -166 l168 10 l0 156 l251 0 l0 748 l-188 0 l0 -600 l-291 0 l0 600 l-188 0 Z" /><glyph glyph-name="" unicode="&#x410;" d="M235 118 l288 0 l53 -124 l190 6 l-327 748 l-122 0 l-327 -748 l193 -6 l52 124 ZM472 262 l-187 0 l91 237 l4 0 l92 -237 Z" /><glyph glyph-name="" unicode="&#x411;" d="M361 326 q45 0 74 -22 q29 -23 30 -67 q2 -29 -20 -58 q-21 -29 -85 -31 l-112 0 l0 178 l113 0 ZM582 748 l-522 0 l0 -748 l327 0 q130 2 198 66 q68 65 68 170 q0 105 -68 169 q-68 64 -198 66 l-139 0 l0 129 l334 0 l0 148 Z" /><glyph glyph-name="" unicode="&#x412;" d="M248 460 l0 140 l135 0 q20 1 43 -15 q23 -15 25 -55 q-1 -35 -20 -52 q-20 -18 -48 -18 l-135 0 ZM381 316 q45 0 74 -22 q29 -22 30 -62 q2 -28 -20 -55 q-21 -27 -85 -29 l-132 0 l0 168 l133 0 ZM639 555 q0 83 -59 137 q-59 54 -173 56 l-347 0 l0 -748 l347 0 q130 1 198 59 q68 57 68 152 q-2 66 -43 114 q-42 47 -105 63 l0 4 q61 28 88 73 q27 44 26 90 l0 0 Z" /><glyph glyph-name="" unicode="&#x413;" d="M565 600 l0 148 l-505 0 l0 -748 l188 0 l0 600 l317 0 Z" /><glyph glyph-name="" unicode="&#x414;" d="M594 0 l0 -166 l158 10 l0 304 l-84 0 l0 600 l-492 0 q-7 -230 -23 -358 q-17 -128 -56 -242 l-77 0 l0 -314 l158 10 l0 156 l416 0 ZM480 600 l0 -452 l-201 0 q30 93 46 205 q16 112 23 247 l132 0 Z" /><glyph glyph-name="" unicode="&#x415;" d="M615 600 l0 148 l-555 0 l0 -748 l555 0 l0 148 l-367 0 l0 168 l325 0 l0 144 l-325 0 l0 140 l367 0 Z" /><glyph glyph-name="" unicode="&#x416;" d="M686 443 l-60 0 l0 305 l-182 0 l0 -305 l-60 0 l-138 311 l-204 -6 l197 -377 l-239 -371 l209 -6 l174 305 l61 0 l0 -299 l182 0 l0 299 l61 0 l174 -305 l209 6 l-239 371 l197 377 l-204 6 l-138 -311 Z" /><glyph glyph-name="" unicode="&#x417;" d="M294 -6 q157 2 231 62 q73 59 72 155 q-2 66 -43 114 q-42 47 -105 63 l0 4 q61 28 88 73 q27 44 26 90 q-2 83 -71 140 q-69 57 -185 59 q-73 0 -134 -23 q-62 -23 -120 -62 l74 -124 q41 28 82 45 q42 17 94 17 q24 0 47 -18 q23 -18 25 -58 q-1 -35 -20 -53 q-20 -18 -48 -18 l-101 0 l0 -144 l99 0 q45 0 74 -22 q29 -22 30 -62 q1 -29 -23 -59 q-24 -30 -92 -32 q-45 1 -91 21 q-47 20 -89 53 l-74 -136 q58 -39 120 -62 q61 -23 134 -23 l0 0 Z" /><glyph glyph-name="" unicode="&#x418;" d="M535 422 l4 -2 l0 -420 l188 0 l0 748 l-108 0 l-367 -429 l-4 2 l0 427 l-188 0 l0 -748 l112 0 l363 422 Z" /><glyph glyph-name="" unicode="&#x41a;" d="M248 748 l-188 0 l0 -748 l188 0 l0 299 l71 0 l194 -305 l209 6 l-254 371 l212 377 l-204 6 l-158 -311 l-70 0 l0 305 Z" /><glyph glyph-name="" unicode="&#x41b;" d="M150 491 q-4 -177 -30 -267 q-25 -90 -110 -90 l25 -143 q13 -4 28 -6 q15 -2 23 -2 q132 3 182 122 q50 120 56 319 l9 176 l167 0 l0 -600 l188 0 l0 748 l-527 0 l-11 -257 Z" /><glyph glyph-name="" unicode="&#x41c;" d="M482 128 l155 259 l4 -1 l0 -387 l188 0 l0 749 l-139 0 l-245 -414 l-246 414 l-139 0 l0 -749 l188 0 l0 386 l4 2 l154 -259 l76 0 Z" /><glyph glyph-name="" unicode="&#x41d;" d="M248 0 l0 316 l291 0 l0 -316 l188 0 l0 748 l-188 0 l0 -288 l-291 0 l0 288 l-188 0 l0 -748 l188 0 Z" /><glyph glyph-name="" unicode="&#x41e;" d="M412 754 q-181 -3 -276 -107 q-95 -105 -96 -273 q1 -168 96 -272 q95 -105 276 -108 q181 3 276 108 q95 104 96 272 q-1 168 -96 273 q-95 104 -276 107 l0 0 ZM412 152 q-91 3 -137 67 q-46 64 -46 155 q0 91 46 155 q46 64 137 67 q92 -3 137 -67 q46 -64 46 -155 q0 -91 -46 -155 q-45 -64 -137 -67 l0 0 Z" /><glyph glyph-name="" unicode="&#x41f;" d="M248 0 l0 600 l291 0 l0 -600 l188 0 l0 748 l-667 0 l0 -748 l188 0 Z" /><glyph glyph-name="" unicode="&#x420;" d="M60 748 l0 -748 l188 0 l0 226 l123 0 q123 3 206 77 q83 74 86 187 q-3 113 -86 185 q-83 71 -206 73 l-311 0 ZM351 600 q54 -1 88 -30 q35 -30 36 -80 q-1 -48 -36 -78 q-34 -31 -88 -32 l-103 0 l0 220 l103 0 Z" /><glyph glyph-name="" unicode="&#x421;" d="M679 679 q-58 35 -119 55 q-62 20 -135 20 q-192 -4 -288 -111 q-97 -107 -97 -269 q0 -162 97 -269 q96 -107 288 -111 q73 0 135 20 q61 20 119 55 l-74 151 q-42 -32 -85 -49 q-44 -17 -95 -17 q-96 2 -146 65 q-51 62 -51 155 q0 94 51 156 q50 62 146 64 q51 0 95 -17 q43 -17 85 -49 l74 151 Z" /><glyph glyph-name="" unicode="&#x422;" d="M604 748 l-594 0 l0 -148 l203 0 l0 -600 l188 0 l0 600 l203 0 l0 148 Z" /><glyph glyph-name="" unicode="&#x423;" d="M-10 748 l269 -537 l-110 -211 l193 -6 l371 754 l-193 6 l-167 -370 l-171 370 l-192 -6 Z" /><glyph glyph-name="" unicode="&#x424;" d="M593 514 l63 0 q58 -1 96 -40 q37 -39 38 -100 q-1 -61 -38 -100 q-38 -39 -96 -40 l-63 0 l0 280 ZM415 748 l0 -80 l-83 0 q-123 -3 -206 -85 q-83 -82 -86 -209 q3 -127 86 -209 q83 -82 206 -85 l83 0 l0 -80 l178 0 l0 80 l83 0 q123 3 206 85 q83 82 86 209 q-3 127 -86 209 q-83 82 -206 85 l-83 0 l0 80 l-178 0 ZM415 234 l-63 0 q-58 1 -95 40 q-38 39 -39 100 q1 61 39 100 q37 39 95 40 l63 0 l0 -280 Z" /><glyph glyph-name="" unicode="&#x425;" d="M356 259 l154 -265 l212 6 l-265 395 l232 353 l-211 6 l-122 -222 l-122 222 l-211 -6 l232 -353 l-265 -395 l212 -6 l154 265 Z" /><glyph glyph-name="" unicode="&#x426;" d="M60 748 l0 -748 l543 0 l0 -166 l158 10 l0 304 l-84 0 l0 600 l-188 0 l0 -600 l-241 0 l0 600 l-188 0 Z" /><glyph glyph-name="" unicode="&#x427;" d="M332 380 q-45 1 -74 32 q-29 30 -30 78 l0 258 l-188 0 l0 -258 q3 -113 80 -187 q77 -74 192 -77 q42 0 76 6 q35 6 67 14 l0 -246 l188 0 l0 748 l-188 0 l0 -348 q-34 -12 -61 -16 q-28 -4 -62 -4 l0 0 Z" /><glyph glyph-name="" unicode="&#x428;" d="M60 0 l936 0 l0 748 l-188 0 l0 -600 l-191 0 l0 600 l-178 0 l0 -600 l-191 0 l0 600 l-188 0 l0 -748 Z" /><glyph glyph-name="" unicode="&#x430;" d="M291 117 q-34 0 -52 15 q-18 15 -18 42 q-1 23 15 40 q17 16 60 17 q23 0 39 -3 q16 -4 35 -11 q-2 -57 -30 -79 q-27 -22 -49 -21 l0 0 ZM293 525 q-59 0 -112 -12 q-52 -13 -103 -39 l51 -113 q41 19 72 27 q32 9 72 9 q44 1 70 -20 q26 -22 27 -75 q-24 7 -55 10 q-31 3 -49 3 q-149 -5 -190 -59 q-41 -54 -36 -97 q1 -74 53 -119 q51 -45 136 -46 q42 0 81 18 q38 18 68 50 l4 -1 l20 -61 l146 0 l0 302 q-2 112 -70 167 q-69 56 -185 56 l0 0 Z" /><glyph glyph-name="" unicode="&#x431;" d="M324 377 q47 0 76 -30 q29 -30 30 -88 q-1 -62 -30 -95 q-29 -32 -76 -32 q-47 1 -76 36 q-29 35 -30 91 q0 21 3 39 q2 17 5 32 q19 17 45 31 q26 15 53 16 l0 0 ZM510 796 q-73 -18 -116 -26 q-42 -9 -82 -21 q-138 -42 -205 -147 q-67 -105 -67 -279 q3 -171 81 -251 q79 -79 203 -78 q123 1 198 70 q74 69 76 195 q-1 122 -70 188 q-69 67 -194 68 q-23 0 -53 -9 q-31 -9 -51 -23 q10 55 41 89 q31 34 86 50 q54 16 89 23 q36 7 97 26 l-33 125 Z" /><glyph glyph-name="" unicode="&#x432;" d="M60 0 q37 -3 94 -4 q56 -2 105 -2 q155 0 221 42 q66 42 64 120 q0 40 -24 74 q-24 33 -73 50 l0 4 q37 18 55 49 q19 31 19 68 q3 53 -50 88 q-53 35 -194 36 q-62 0 -119 -2 q-57 -2 -98 -4 l0 -519 ZM378 166 q0 -20 -17 -32 q-16 -12 -46 -12 l-79 0 l0 97 l54 0 q45 0 67 -13 q21 -12 21 -40 l0 0 ZM300 402 q25 1 45 -10 q19 -10 20 -37 q0 -22 -17 -37 q-18 -14 -56 -15 l-56 0 l0 99 l64 0 Z" /><glyph glyph-name="" unicode="&#x433;" d="M60 519 l0 -519 l176 0 l0 383 l223 0 l0 136 l-399 0 Z" /><glyph glyph-name="" unicode="&#x434;" d="M516 0 l0 -151 l153 6 l0 281 l-80 0 l0 383 l-426 0 q0 -110 -14 -211 q-14 -101 -41 -172 l-78 0 l0 -287 l153 6 l0 145 l333 0 ZM413 383 l0 -247 l-132 0 q18 60 29 121 q11 61 14 126 l89 0 Z" /><glyph glyph-name="" unicode="&#x435;" d="M327 122 q-46 -1 -73 17 q-28 18 -35 69 l340 0 l7 51 q0 126 -63 196 q-63 69 -195 70 q-123 -1 -195 -70 q-71 -70 -73 -196 q2 -126 79 -195 q77 -69 209 -70 q128 0 215 51 l-51 113 q-37 -18 -79 -27 q-43 -9 -86 -9 l0 0 ZM305 407 q38 0 64 -24 q26 -24 27 -71 l-175 0 q7 47 28 71 q21 24 56 24 l0 0 Z" /><glyph glyph-name="" unicode="&#x436;" d="M358 0 l176 0 l0 220 l37 0 l112 -226 l209 6 l-168 274 l134 245 l-204 6 l-85 -199 l-35 0 l0 193 l-176 0 l0 -193 l-35 0 l-85 199 l-204 -6 l134 -245 l-168 -274 l209 -6 l112 226 l37 0 l0 -220 Z" /><glyph glyph-name="" unicode="&#x437;" d="M273 171 q0 -16 -17 -27 q-16 -12 -46 -12 q-16 -1 -44 4 q-28 4 -75 22 l-51 -113 q47 -27 92 -39 q45 -12 91 -12 q98 0 156 42 q59 42 60 120 q0 40 -24 74 q-24 33 -73 50 l0 4 q37 18 55 49 q19 31 19 68 q0 53 -48 88 q-49 35 -142 36 q-46 1 -91 -9 q-45 -9 -92 -36 l51 -118 q37 18 66 24 q29 6 41 6 q20 1 39 -7 q19 -7 20 -34 q0 -25 -21 -37 q-21 -11 -63 -11 l-20 0 l0 -84 l20 0 q45 0 71 -10 q26 -11 26 -38 l0 0 Z" /><glyph glyph-name="" unicode="&#x438;" d="M591 0 l0 519 l-116 0 l-235 -273 l-4 2 l0 271 l-176 0 l0 -519 l116 0 l235 272 l4 -2 l0 -270 l176 0 Z" /><glyph glyph-name="" unicode="&#x43a;" d="M405 -6 l209 6 l-188 274 l154 245 l-204 6 l-105 -199 l-35 0 l0 193 l-176 0 l0 -519 l176 0 l0 220 l37 0 l132 -226 Z" /><glyph glyph-name="" unicode="&#x43b;" d="M116 309 q-3 -105 -29 -143 q-26 -38 -89 -36 l25 -133 q13 -4 28 -6 q15 -2 23 -2 q92 0 146 66 q55 66 63 192 l8 136 l104 0 l0 -383 l176 0 l0 519 l-446 0 l-9 -210 Z" /><glyph glyph-name="" unicode="&#x43c;" d="M236 0 l0 269 l4 1 l125 -194 l21 0 l125 194 l4 -1 l0 -269 l176 0 l0 519 l-146 0 l-170 -263 l-169 263 l-146 0 l0 -519 l176 0 Z" /><glyph glyph-name="" unicode="&#x43d;" d="M591 0 l0 519 l-176 0 l0 -177 l-179 0 l0 177 l-176 0 l0 -519 l176 0 l0 220 l179 0 l0 -220 l176 0 Z" /><glyph glyph-name="" unicode="&#x43e;" d="M318 525 q-125 -1 -200 -69 q-76 -68 -78 -197 q2 -125 78 -194 q75 -70 200 -71 q125 1 201 71 q75 69 77 194 q-2 129 -77 197 q-76 68 -201 69 l0 0 ZM318 388 q46 -1 74 -35 q27 -34 28 -94 q-1 -59 -28 -93 q-28 -34 -74 -35 q-46 1 -73 35 q-28 34 -29 93 q1 60 29 94 q27 34 73 35 l0 0 Z" /><glyph glyph-name="" unicode="&#x43f;" d="M60 519 l0 -519 l176 0 l0 383 l179 0 l0 -383 l176 0 l0 519 l-531 0 Z" /><glyph glyph-name="" unicode="&#x440;" d="M236 316 q14 25 39 43 q25 17 57 18 q43 0 72 -30 q28 -29 29 -87 q-1 -58 -30 -88 q-29 -30 -71 -30 q-32 0 -54 7 q-22 6 -42 19 l0 148 ZM236 27 l3 1 q27 -17 53 -26 q26 -8 59 -8 q119 1 188 70 q69 70 70 196 q-3 126 -68 195 q-65 69 -161 70 q-49 -1 -85 -20 q-36 -19 -65 -48 l-4 1 l-20 61 l-146 0 l0 -727 l176 0 l0 235 Z" /><glyph glyph-name="" unicode="&#x441;" d="M216 259 q1 63 30 96 q28 32 71 32 q48 -1 81 -13 q33 -13 63 -32 l67 132 q-39 26 -85 38 q-45 13 -125 13 q-128 -1 -202 -70 q-74 -70 -76 -196 q2 -126 76 -195 q74 -69 202 -70 q80 0 125 13 q46 13 85 38 l-67 132 q-30 -19 -63 -31 q-33 -13 -81 -14 q-43 0 -71 32 q-29 32 -30 95 l0 0 Z" /><glyph glyph-name="" unicode="&#x442;" d="M20 519 l0 -136 l149 0 l0 -383 l176 0 l0 383 l149 0 l0 136 l-474 0 Z" /><glyph glyph-name="" unicode="&#x443;" d="M279 -214 l315 733 l-192 6 l-103 -306 l-4 0 l-103 306 l-192 -6 l210 -489 l-102 -238 l171 -6 Z" /><glyph glyph-name="" unicode="&#x444;" d="M549 352 q18 13 38 19 q19 7 48 7 q30 0 50 -30 q20 -30 21 -88 q-1 -58 -20 -88 q-20 -30 -51 -30 q-29 0 -48 7 q-20 6 -38 19 l0 184 ZM373 795 l0 -302 l-3 -1 q-26 17 -52 26 q-26 8 -50 8 q-105 -1 -166 -70 q-61 -70 -62 -196 q1 -126 62 -196 q61 -69 166 -70 q24 0 50 8 q26 9 52 26 l3 -1 l0 -235 l176 0 l0 235 l3 1 q26 -17 52 -26 q26 -8 50 -8 q105 1 166 70 q61 70 62 196 q-1 126 -62 196 q-61 69 -166 70 q-24 0 -50 -8 q-26 -9 -52 -26 l-3 1 l0 302 l-176 0 ZM373 168 q-18 -13 -38 -19 q-19 -7 -48 -7 q-31 0 -50 30 q-20 30 -21 88 q1 58 21 88 q20 30 50 30 q29 0 48 -7 q20 -6 38 -19 l0 -184 Z" /><glyph glyph-name="" unicode="&#x445;" d="M308 393 l-75 132 l-205 -6 l171 -242 l-199 -277 l206 -6 l102 170 l102 -170 l206 6 l-199 277 l171 242 l-205 6 l-75 -132 Z" /><glyph glyph-name="" unicode="&#x446;" d="M571 136 l0 383 l-176 0 l0 -383 l-159 0 l0 383 l-176 0 l0 -519 l438 0 l0 -151 l153 6 l0 281 l-80 0 Z" /><glyph glyph-name="" unicode="&#x447;" d="M375 0 l176 0 l0 519 l-176 0 l0 -218 q-25 -11 -45 -15 q-20 -4 -38 -4 q-34 -2 -59 17 q-26 19 -27 82 l0 138 l-176 0 l0 -128 q4 -148 65 -203 q61 -55 137 -52 q38 0 72 7 q35 6 71 24 l0 -167 Z" /><glyph glyph-name="" unicode="&#x448;" d="M836 0 l0 519 l-176 0 l0 -383 l-129 0 l0 383 l-166 0 l0 -383 l-129 0 l0 383 l-176 0 l0 -519 l776 0 Z" /><glyph glyph-name="" unicode="&#x453;" d="M60 519 l0 -519 l176 0 l0 383 l223 0 l0 136 l-399 0 ZM158 585 l144 0 l124 163 l-184 0 l-84 -163 Z" /><glyph glyph-name="" unicode="&#x455;" d="M274 161 q0 -16 -17 -22 q-17 -7 -47 -7 q-16 -1 -44 4 q-28 4 -75 22 l-51 -113 q47 -27 92 -39 q45 -12 91 -12 q98 0 156 44 q59 44 60 128 q-14 119 -114 149 q-101 31 -115 53 q1 17 20 21 q19 4 39 3 q12 0 41 -6 q29 -6 66 -24 l51 118 q-45 27 -87 36 q-43 10 -86 9 q-105 -2 -154 -50 q-50 -47 -49 -110 q14 -118 112 -147 q97 -28 111 -57 l0 0 Z" /><glyph glyph-name="" unicode="&#x458;" d="M88 674 q1 -42 29 -70 q28 -28 70 -29 q42 1 70 29 q28 28 29 70 q-1 42 -29 70 q-28 29 -70 30 q-42 -1 -70 -30 q-28 -28 -29 -70 l0 0 ZM99 16 q0 -40 -30 -63 q-30 -24 -89 -25 l25 -134 q13 -4 28 -6 q15 -2 23 -2 q93 0 155 56 q62 57 64 170 l0 507 l-176 0 l0 -503 Z" /><glyph glyph-name="" unicode="&#x459;" d="M619 221 q26 0 43 -11 q18 -12 19 -39 q-1 -26 -19 -38 q-17 -11 -43 -11 l-48 0 l0 99 l48 0 ZM291 383 l104 0 l0 -383 l271 0 q87 2 135 50 q47 48 48 121 q-1 73 -48 121 q-48 48 -135 50 l-95 0 l0 177 l-446 0 l-9 -210 q-3 -105 -29 -143 q-26 -38 -89 -36 l25 -133 q13 -4 28 -6 q15 -2 23 -2 q92 0 146 66 q55 66 63 192 l8 136 Z" /><glyph glyph-name="" unicode="&#x45a;" d="M395 0 l271 0 q87 2 135 50 q47 48 48 121 q-1 73 -48 121 q-48 48 -135 50 l-95 0 l0 177 l-176 0 l0 -177 l-159 0 l0 177 l-176 0 l0 -519 l176 0 l0 220 l159 0 l0 -220 ZM619 221 q26 0 43 -11 q18 -12 19 -39 q-1 -26 -19 -38 q-17 -11 -43 -11 l-48 0 l0 99 l48 0 Z" /><glyph glyph-name="" unicode="&#x45c;" d="M405 -6 l209 6 l-188 274 l154 245 l-204 6 l-105 -199 l-35 0 l0 193 l-176 0 l0 -519 l176 0 l0 220 l37 0 l132 -226 ZM208 585 l144 0 l124 163 l-184 0 l-84 -163 Z" /><glyph glyph-name="" unicode="&#x45f;" d="M591 0 l0 519 l-176 0 l0 -383 l-179 0 l0 383 l-176 0 l0 -519 l186 0 l0 -151 l158 6 l0 145 l187 0 Z" /><glyph glyph-name="" unicode="¤" d="M217 354 q1 52 35 86 q34 35 86 36 q52 -1 86 -36 q35 -34 36 -86 q-1 -52 -36 -86 q-34 -34 -86 -35 q-52 1 -86 35 q-34 34 -35 86 l0 0 ZM139 66 l72 72 q28 -17 60 -25 q32 -9 67 -9 q35 0 67 9 q31 8 60 25 l72 -72 l89 89 l-72 71 q17 28 26 60 q9 32 9 68 q0 35 -9 67 q-9 32 -26 60 l72 72 l-89 89 l-72 -72 q-28 17 -60 26 q-32 9 -67 9 q-36 0 -68 -9 q-32 -9 -60 -26 l-71 72 l-89 -89 l72 -72 q-17 -29 -25 -60 q-9 -32 -9 -67 q0 -35 9 -67 q8 -32 25 -60 l-72 -72 l89 -89 Z" /><glyph glyph-name="" unicode="&#x400;" d="M615 600 l0 148 l-555 0 l0 -748 l555 0 l0 148 l-367 0 l0 168 l325 0 l0 144 l-325 0 l0 140 l367 0 ZM360 959 l-184 0 l124 -163 l144 0 l-84 163 Z" /><glyph glyph-name="" unicode="&#x40d;" d="M535 422 l4 -2 l0 -420 l188 0 l0 748 l-108 0 l-367 -429 l-4 2 l0 427 l-188 0 l0 -748 l112 0 l363 422 ZM423 959 l-184 0 l124 -163 l144 0 l-84 163 Z" /><glyph glyph-name="" unicode="&#x450;" d="M327 122 q-46 -1 -73 17 q-28 18 -35 69 l340 0 l7 51 q0 126 -63 196 q-63 69 -195 70 q-123 -1 -195 -70 q-71 -70 -73 -196 q2 -126 79 -195 q77 -69 209 -70 q128 0 215 51 l-51 113 q-37 -18 -79 -27 q-43 -9 -86 -9 l0 0 ZM305 407 q38 0 64 -24 q26 -24 27 -71 l-175 0 q7 47 28 71 q21 24 56 24 l0 0 ZM321 748 l-184 0 l124 -163 l144 0 l-84 163 Z" /><glyph glyph-name="" unicode="&#x45d;" d="M591 0 l0 519 l-116 0 l-235 -273 l-4 2 l0 271 l-176 0 l0 -519 l116 0 l235 272 l4 -2 l0 -270 l176 0 ZM345 748 l-184 0 l124 -163 l144 0 l-84 163 Z" /><glyph glyph-name="" unicode="" d="" /><glyph glyph-name="" unicode="é" d="M327 122 q-46 -1 -73 17 q-28 18 -35 69 l340 0 l7 51 q0 126 -63 196 q-63 69 -195 70 q-123 -1 -195 -70 q-71 -70 -73 -196 q2 -126 79 -195 q77 -69 209 -70 q128 0 215 51 l-51 113 q-37 -18 -79 -27 q-43 -9 -86 -9 l0 0 ZM305 407 q38 0 64 -24 q26 -24 27 -71 l-175 0 q7 47 28 71 q21 24 56 24 l0 0 ZM212 585 l144 0 l124 163 l-184 0 l-84 -163 Z" /><glyph glyph-name="" unicode="è" d="M327 122 q-46 -1 -73 17 q-28 18 -35 69 l340 0 l7 51 q0 126 -63 196 q-63 69 -195 70 q-123 -1 -195 -70 q-71 -70 -73 -196 q2 -126 79 -195 q77 -69 209 -70 q128 0 215 51 l-51 113 q-37 -18 -79 -27 q-43 -9 -86 -9 l0 0 ZM305 407 q38 0 64 -24 q26 -24 27 -71 l-175 0 q7 47 28 71 q21 24 56 24 l0 0 ZM347 748 l-184 0 l124 -163 l144 0 l-84 163 Z" /><glyph glyph-name="" unicode="ê" d="M327 122 q-46 -1 -73 17 q-28 18 -35 69 l340 0 l7 51 q0 126 -63 196 q-63 69 -195 70 q-123 -1 -195 -70 q-71 -70 -73 -196 q2 -126 79 -195 q77 -69 209 -70 q128 0 215 51 l-51 113 q-37 -18 -79 -27 q-43 -9 -86 -9 l0 0 ZM305 407 q38 0 64 -24 q26 -24 27 -71 l-175 0 q7 47 28 71 q21 24 56 24 l0 0 ZM139 585 l114 0 l62 70 l62 -70 l114 0 l-104 163 l-144 0 l-104 -163 Z" /><glyph glyph-name="" unicode="á" d="M291 117 q-34 0 -52 15 q-18 15 -18 42 q-1 23 15 40 q17 16 60 17 q23 0 39 -3 q16 -4 35 -11 q-2 -57 -30 -79 q-27 -22 -49 -21 l0 0 ZM293 525 q-59 0 -112 -12 q-52 -13 -103 -39 l51 -113 q41 19 72 27 q32 9 72 9 q44 1 70 -20 q26 -22 27 -75 q-24 7 -55 10 q-31 3 -49 3 q-149 -5 -190 -59 q-41 -54 -36 -97 q1 -74 53 -119 q51 -45 136 -46 q42 0 81 18 q38 18 68 50 l4 -1 l20 -61 l146 0 l0 302 q-2 112 -70 167 q-69 56 -185 56 l0 0 ZM220 585 l144 0 l124 163 l-184 0 l-84 -163 Z" /><glyph glyph-name="" unicode="à" d="M291 117 q-34 0 -52 15 q-18 15 -18 42 q-1 23 15 40 q17 16 60 17 q23 0 39 -3 q16 -4 35 -11 q-2 -57 -30 -79 q-27 -22 -49 -21 l0 0 ZM293 525 q-59 0 -112 -12 q-52 -13 -103 -39 l51 -113 q41 19 72 27 q32 9 72 9 q44 1 70 -20 q26 -22 27 -75 q-24 7 -55 10 q-31 3 -49 3 q-149 -5 -190 -59 q-41 -54 -36 -97 q1 -74 53 -119 q51 -45 136 -46 q42 0 81 18 q38 18 68 50 l4 -1 l20 -61 l146 0 l0 302 q-2 112 -70 167 q-69 56 -185 56 l0 0 ZM304 748 l-184 0 l124 -163 l144 0 l-84 163 Z" /><glyph glyph-name="" unicode="â" d="M291 117 q-34 0 -52 15 q-18 15 -18 42 q-1 23 15 40 q17 16 60 17 q23 0 39 -3 q16 -4 35 -11 q-2 -57 -30 -79 q-27 -22 -49 -21 l0 0 ZM293 525 q-59 0 -112 -12 q-52 -13 -103 -39 l51 -113 q41 19 72 27 q32 9 72 9 q44 1 70 -20 q26 -22 27 -75 q-24 7 -55 10 q-31 3 -49 3 q-149 -5 -190 -59 q-41 -54 -36 -97 q1 -74 53 -119 q51 -45 136 -46 q42 0 81 18 q38 18 68 50 l4 -1 l20 -61 l146 0 l0 302 q-2 112 -70 167 q-69 56 -185 56 l0 0 ZM136 585 l114 0 l62 70 l62 -70 l114 0 l-104 163 l-144 0 l-104 -163 Z" /><glyph glyph-name="" unicode="ä" d="M291 117 q-34 0 -52 15 q-18 15 -18 42 q-1 23 15 40 q17 16 60 17 q23 0 39 -3 q16 -4 35 -11 q-2 -57 -30 -79 q-27 -22 -49 -21 l0 0 ZM293 525 q-59 0 -112 -12 q-52 -13 -103 -39 l51 -113 q41 19 72 27 q32 9 72 9 q44 1 70 -20 q26 -22 27 -75 q-24 7 -55 10 q-31 3 -49 3 q-149 -5 -190 -59 q-41 -54 -36 -97 q1 -74 53 -119 q51 -45 136 -46 q42 0 81 18 q38 18 68 50 l4 -1 l20 -61 l146 0 l0 302 q-2 112 -70 167 q-69 56 -185 56 l0 0 ZM203 586 q37 1 61 25 q23 24 24 61 q-1 37 -26 59 q-25 22 -61 23 q-34 -1 -57 -25 q-23 -24 -24 -57 q1 -36 24 -60 q23 -25 59 -26 l0 0 ZM411 586 q37 1 61 25 q23 24 24 61 q-1 37 -26 59 q-25 22 -61 23 q-34 -1 -57 -25 q-23 -24 -24 -57 q1 -36 24 -60 q23 -25 59 -26 l0 0 Z" /><glyph glyph-name="" unicode="ó" d="M318 525 q-125 -1 -200 -69 q-76 -68 -78 -197 q2 -125 78 -194 q75 -70 200 -71 q125 1 201 71 q75 69 77 194 q-2 129 -77 197 q-76 68 -201 69 l0 0 ZM318 388 q46 -1 74 -35 q27 -34 28 -94 q-1 -59 -28 -93 q-28 -34 -74 -35 q-46 1 -73 35 q-28 34 -29 93 q1 60 29 94 q27 34 73 35 l0 0 ZM222 585 l144 0 l124 163 l-184 0 l-84 -163 Z" /><glyph glyph-name="" unicode="ò" d="M318 525 q-125 -1 -200 -69 q-76 -68 -78 -197 q2 -125 78 -194 q75 -70 200 -71 q125 1 201 71 q75 69 77 194 q-2 129 -77 197 q-76 68 -201 69 l0 0 ZM318 388 q46 -1 74 -35 q27 -34 28 -94 q-1 -59 -28 -93 q-28 -34 -74 -35 q-46 1 -73 35 q-28 34 -29 93 q1 60 29 94 q27 34 73 35 l0 0 ZM368 748 l-184 0 l124 -163 l144 0 l-84 163 Z" /><glyph glyph-name="" unicode="ô" d="M318 525 q-125 -1 -200 -69 q-76 -68 -78 -197 q2 -125 78 -194 q75 -70 200 -71 q125 1 201 71 q75 69 77 194 q-2 129 -77 197 q-76 68 -201 69 l0 0 ZM318 388 q46 -1 74 -35 q27 -34 28 -94 q-1 -59 -28 -93 q-28 -34 -74 -35 q-46 1 -73 35 q-28 34 -29 93 q1 60 29 94 q27 34 73 35 l0 0 ZM142 585 l114 0 l62 70 l62 -70 l114 0 l-104 163 l-144 0 l-104 -163 Z" /><glyph glyph-name="" unicode="ö" d="M318 525 q-125 -1 -200 -69 q-76 -68 -78 -197 q2 -125 78 -194 q75 -70 200 -71 q125 1 201 71 q75 69 77 194 q-2 129 -77 197 q-76 68 -201 69 l0 0 ZM318 388 q46 -1 74 -35 q27 -34 28 -94 q-1 -59 -28 -93 q-28 -34 -74 -35 q-46 1 -73 35 q-28 34 -29 93 q1 60 29 94 q27 34 73 35 l0 0 ZM213 586 q37 1 61 25 q23 24 24 61 q-1 37 -26 59 q-25 22 -61 23 q-34 -1 -57 -25 q-23 -24 -24 -57 q1 -36 24 -60 q23 -25 59 -26 l0 0 ZM421 586 q37 1 61 25 q23 24 24 61 q-1 37 -26 59 q-25 22 -61 23 q-34 -1 -57 -25 q-23 -24 -24 -57 q1 -36 24 -60 q23 -25 59 -26 l0 0 Z" /><glyph glyph-name="" unicode="ú" d="M430 61 l20 -61 l146 0 l0 519 l-176 0 l0 -318 q-17 -25 -44 -42 q-26 -18 -59 -19 q-30 -1 -52 17 q-23 19 -24 73 l0 289 l-176 0 l0 -279 q3 -147 62 -198 q58 -51 130 -48 q48 0 91 18 q44 18 78 50 l4 -1 ZM238 585 l144 0 l124 163 l-184 0 l-84 -163 Z" /><glyph glyph-name="" unicode="ù" d="M430 61 l20 -61 l146 0 l0 519 l-176 0 l0 -318 q-17 -25 -44 -42 q-26 -18 -59 -19 q-30 -1 -52 17 q-23 19 -24 73 l0 289 l-176 0 l0 -279 q3 -147 62 -198 q58 -51 130 -48 q48 0 91 18 q44 18 78 50 l4 -1 ZM380 748 l-184 0 l124 -163 l144 0 l-84 163 Z" /><glyph glyph-name="" unicode="û" d="M430 61 l20 -61 l146 0 l0 519 l-176 0 l0 -318 q-17 -25 -44 -42 q-26 -18 -59 -19 q-30 -1 -52 17 q-23 19 -24 73 l0 289 l-176 0 l0 -279 q3 -147 62 -198 q58 -51 130 -48 q48 0 91 18 q44 18 78 50 l4 -1 ZM154 585 l114 0 l62 70 l62 -70 l114 0 l-104 163 l-144 0 l-104 -163 Z" /><glyph glyph-name="" unicode="ü" d="M430 61 l20 -61 l146 0 l0 519 l-176 0 l0 -318 q-17 -25 -44 -42 q-26 -18 -59 -19 q-30 -1 -52 17 q-23 19 -24 73 l0 289 l-176 0 l0 -279 q3 -147 62 -198 q58 -51 130 -48 q48 0 91 18 q44 18 78 50 l4 -1 ZM225 586 q37 1 61 25 q23 24 24 61 q-1 37 -26 59 q-25 22 -61 23 q-34 -1 -57 -25 q-23 -24 -24 -57 q1 -36 24 -60 q23 -25 59 -26 l0 0 ZM433 586 q37 1 61 25 q23 24 24 61 q-1 37 -26 59 q-25 22 -61 23 q-34 -1 -57 -25 q-23 -24 -24 -57 q1 -36 24 -60 q23 -25 59 -26 l0 0 Z" /><glyph glyph-name="" unicode="í" d="M248 748 l-188 0 l0 -748 l188 0 l0 748 ZM20 795 l144 0 l124 163 l-184 0 l-84 -163 Z" /><glyph glyph-name="" unicode="î" d="M248 748 l-188 0 l0 -748 l188 0 l0 748 ZM-22 795 l114 0 l62 70 l62 -70 l114 0 l-104 163 l-144 0 l-104 -163 Z" /><glyph glyph-name="" unicode="ï" d="M248 748 l-188 0 l0 -748 l188 0 l0 748 ZM49 795 q37 1 61 25 q23 24 24 61 q-1 37 -26 59 q-25 22 -61 23 q-34 -1 -57 -25 q-23 -24 -24 -57 q1 -36 24 -60 q23 -25 59 -26 l0 0 ZM257 795 q37 1 61 25 q23 24 24 61 q-1 37 -26 59 q-25 22 -61 23 q-34 -1 -57 -25 q-23 -24 -24 -57 q1 -36 24 -60 q23 -25 59 -26 l0 0 Z" /><glyph glyph-name="" unicode="ì" d="M248 748 l-188 0 l0 -748 l188 0 l0 748 ZM204 959 l-184 0 l124 -163 l144 0 l-84 163 Z" /><glyph glyph-name="" unicode="ó" d="M412 754 q-181 -3 -276 -107 q-95 -105 -96 -273 q1 -168 96 -272 q95 -105 276 -108 q181 3 276 108 q95 104 96 272 q-1 168 -96 273 q-95 104 -276 107 l0 0 ZM412 152 q-91 3 -137 67 q-46 64 -46 155 q0 91 46 155 q46 64 137 67 q92 -3 137 -67 q46 -64 46 -155 q0 -91 -46 -155 q-45 -64 -137 -67 l0 0 ZM312 796 l144 0 l124 163 l-184 0 l-84 -163 Z" /><glyph glyph-name="" unicode="ô" d="M412 754 q-181 -3 -276 -107 q-95 -105 -96 -273 q1 -168 96 -272 q95 -105 276 -108 q181 3 276 108 q95 104 96 272 q-1 168 -96 273 q-95 104 -276 107 l0 0 ZM412 152 q-91 3 -137 67 q-46 64 -46 155 q0 91 46 155 q46 64 137 67 q92 -3 137 -67 q46 -64 46 -155 q0 -91 -46 -155 q-45 -64 -137 -67 l0 0 ZM236 796 l114 0 l62 70 l62 -70 l114 0 l-104 163 l-144 0 l-104 -163 Z" /><glyph glyph-name="" unicode="ò" d="M412 754 q-181 -3 -276 -107 q-95 -105 -96 -273 q1 -168 96 -272 q95 -105 276 -108 q181 3 276 108 q95 104 96 272 q-1 168 -96 273 q-95 104 -276 107 l0 0 ZM412 152 q-91 3 -137 67 q-46 64 -46 155 q0 91 46 155 q46 64 137 67 q92 -3 137 -67 q46 -64 46 -155 q0 -91 -46 -155 q-45 -64 -137 -67 l0 0 ZM442 959 l-184 0 l124 -163 l144 0 l-84 163 Z" /><glyph glyph-name="" unicode="ú" d="M385 141 q-67 2 -102 52 q-35 51 -35 129 l0 426 l-188 0 l0 -426 q0 -145 82 -236 q82 -90 243 -93 q161 3 243 93 q82 91 82 236 l0 426 l-188 0 l0 -426 q0 -78 -35 -129 q-35 -50 -102 -52 l0 0 ZM301 796 l144 0 l124 163 l-184 0 l-84 -163 Z" /><glyph glyph-name="" unicode="û" d="M385 141 q-67 2 -102 52 q-35 51 -35 129 l0 426 l-188 0 l0 -426 q0 -145 82 -236 q82 -90 243 -93 q161 3 243 93 q82 91 82 236 l0 426 l-188 0 l0 -426 q0 -78 -35 -129 q-35 -50 -102 -52 l0 0 ZM209 796 l114 0 l62 70 l62 -70 l114 0 l-104 163 l-144 0 l-104 -163 Z" /><glyph glyph-name="" unicode="ù" d="M385 141 q-67 2 -102 52 q-35 51 -35 129 l0 426 l-188 0 l0 -426 q0 -145 82 -236 q82 -90 243 -93 q161 3 243 93 q82 91 82 236 l0 426 l-188 0 l0 -426 q0 -78 -35 -129 q-35 -50 -102 -52 l0 0 ZM393 959 l-184 0 l124 -163 l144 0 l-84 163 Z" /><glyph glyph-name="" unicode="ä" d="M235 118 l288 0 l53 -124 l190 6 l-327 748 l-122 0 l-327 -748 l193 -6 l52 124 ZM472 262 l-187 0 l91 237 l4 0 l92 -237 ZM273 795 q37 1 61 25 q23 24 24 61 q-1 37 -26 59 q-25 22 -61 23 q-34 -1 -57 -25 q-23 -24 -24 -57 q1 -36 24 -60 q23 -25 59 -26 l0 0 ZM481 795 q37 1 61 25 q23 24 24 61 q-1 37 -26 59 q-25 22 -61 23 q-34 -1 -57 -25 q-23 -24 -24 -57 q1 -36 24 -60 q23 -25 59 -26 l0 0 Z" /><glyph glyph-name="" unicode="é" d="M615 600 l0 148 l-555 0 l0 -748 l555 0 l0 148 l-367 0 l0 168 l325 0 l0 144 l-325 0 l0 140 l367 0 ZM261 795 l144 0 l124 163 l-184 0 l-84 -163 Z" /><glyph glyph-name="" unicode="ö" d="M412 754 q-181 -3 -276 -107 q-95 -105 -96 -273 q1 -168 96 -272 q95 -105 276 -108 q181 3 276 108 q95 104 96 272 q-1 168 -96 273 q-95 104 -276 107 l0 0 ZM412 152 q-91 3 -137 67 q-46 64 -46 155 q0 91 46 155 q46 64 137 67 q92 -3 137 -67 q46 -64 46 -155 q0 -91 -46 -155 q-45 -64 -137 -67 l0 0 ZM307 795 q37 1 61 25 q23 24 24 61 q-1 37 -26 59 q-25 22 -61 23 q-34 -1 -57 -25 q-23 -24 -24 -57 q1 -36 24 -60 q23 -25 59 -26 l0 0 ZM515 795 q37 1 61 25 q23 24 24 61 q-1 37 -26 59 q-25 22 -61 23 q-34 -1 -57 -25 q-23 -24 -24 -57 q1 -36 24 -60 q23 -25 59 -26 l0 0 Z" /><glyph glyph-name="" unicode="ü" d="M385 141 q-67 2 -102 52 q-35 51 -35 129 l0 426 l-188 0 l0 -426 q0 -145 82 -236 q82 -90 243 -93 q161 3 243 93 q82 91 82 236 l0 426 l-188 0 l0 -426 q0 -78 -35 -129 q-35 -50 -102 -52 l0 0 ZM280 795 q37 1 61 25 q23 24 24 61 q-1 37 -26 59 q-25 22 -61 23 q-34 -1 -57 -25 q-23 -24 -24 -57 q1 -36 24 -60 q23 -25 59 -26 l0 0 ZM488 795 q37 1 61 25 q23 24 24 61 q-1 37 -26 59 q-25 22 -61 23 q-34 -1 -57 -25 q-23 -24 -24 -57 q1 -36 24 -60 q23 -25 59 -26 l0 0 Z" /><glyph glyph-name="" unicode="â" d="M235 118 l288 0 l53 -124 l190 6 l-327 748 l-122 0 l-327 -748 l193 -6 l52 124 ZM472 262 l-187 0 l91 237 l4 0 l92 -237 ZM202 796 l114 0 l62 70 l62 -70 l114 0 l-104 163 l-144 0 l-104 -163 Z" /><glyph glyph-name="" unicode="ê" d="M615 600 l0 148 l-555 0 l0 -748 l555 0 l0 148 l-367 0 l0 168 l325 0 l0 144 l-325 0 l0 140 l367 0 ZM171 796 l114 0 l62 70 l62 -70 l114 0 l-104 163 l-144 0 l-104 -163 Z" /><glyph glyph-name="" unicode="á" d="M235 118 l288 0 l53 -124 l190 6 l-327 748 l-122 0 l-327 -748 l193 -6 l52 124 ZM472 262 l-187 0 l91 237 l4 0 l92 -237 ZM255 796 l144 0 l124 163 l-184 0 l-84 -163 Z" /><glyph glyph-name="" unicode="ë" d="M615 600 l0 148 l-555 0 l0 -748 l555 0 l0 148 l-367 0 l0 168 l325 0 l0 144 l-325 0 l0 140 l367 0 ZM258 795 q37 1 61 25 q23 24 24 61 q-1 37 -26 59 q-25 22 -61 23 q-34 -1 -57 -25 q-23 -24 -24 -57 q1 -36 24 -60 q23 -25 59 -26 l0 0 ZM466 795 q37 1 61 25 q23 24 24 61 q-1 37 -26 59 q-25 22 -61 23 q-34 -1 -57 -25 q-23 -24 -24 -57 q1 -36 24 -60 q23 -25 59 -26 l0 0 Z" /><glyph glyph-name="" unicode="è" d="M615 600 l0 148 l-555 0 l0 -748 l555 0 l0 148 l-367 0 l0 168 l325 0 l0 144 l-325 0 l0 140 l367 0 ZM374 959 l-184 0 l124 -163 l144 0 l-84 163 Z" /><glyph glyph-name="" unicode="ç" d="M679 679 q-58 35 -119 55 q-62 20 -135 20 q-192 -4 -288 -111 q-97 -107 -97 -269 q0 -143 77 -245 q76 -103 229 -129 l-99 -124 l123 -79 l120 201 q51 7 98 25 q46 19 91 46 l-74 151 q-42 -32 -85 -49 q-44 -17 -95 -17 q-96 2 -146 65 q-51 62 -51 155 q0 94 51 156 q50 62 146 64 q51 0 95 -17 q43 -17 85 -49 l74 151 Z" /><glyph glyph-name="" unicode="ç" d="M216 259 q1 63 30 96 q28 32 71 32 q48 -1 81 -13 q33 -13 63 -32 l67 132 q-39 26 -85 38 q-45 13 -125 13 q-128 -1 -202 -70 q-74 -70 -76 -196 q1 -109 57 -176 q57 -66 156 -83 l-99 -124 l123 -79 l119 201 q42 5 72 16 q31 12 60 31 l-67 132 q-30 -19 -63 -31 q-33 -13 -81 -14 q-43 0 -71 32 q-29 32 -30 95 l0 0 Z" /><glyph glyph-name="" unicode="å" d="M235 118 l288 0 l53 -124 l190 6 l-327 748 l-122 0 l-327 -748 l193 -6 l52 124 ZM472 262 l-187 0 l91 237 l4 0 l92 -237 ZM378 779 q47 1 78 33 q32 31 33 78 q-1 47 -33 78 q-31 32 -78 33 q-47 -1 -78 -33 q-32 -31 -33 -78 q1 -47 33 -78 q31 -32 78 -33 l0 0 ZM327 890 q1 22 15 36 q14 14 36 15 q22 -1 36 -15 q14 -14 15 -36 q-1 -22 -15 -36 q-14 -14 -36 -15 q-22 1 -36 15 q-14 14 -15 36 l0 0 Z" /><glyph glyph-name="" unicode="ã" d="M291 117 q-34 0 -52 15 q-18 15 -18 42 q-1 23 15 40 q17 16 60 17 q23 0 39 -3 q16 -4 35 -11 q-2 -57 -30 -79 q-27 -22 -49 -21 l0 0 ZM293 525 q-59 0 -112 -12 q-52 -13 -103 -39 l51 -113 q41 19 72 27 q32 9 72 9 q44 1 70 -20 q26 -22 27 -75 q-24 7 -55 10 q-31 3 -49 3 q-149 -5 -190 -59 q-41 -54 -36 -97 q1 -74 53 -119 q51 -45 136 -46 q42 0 81 18 q38 18 68 50 l4 -1 l20 -61 l146 0 l0 302 q-2 112 -70 167 q-69 56 -185 56 l0 0 ZM395 743 q-55 -2 -85 -17 q-29 -16 -60 -18 q-10 0 -27 4 q-18 5 -41 21 l-28 -100 q28 -28 54 -36 q25 -9 39 -8 q43 2 79 18 q35 15 66 17 q10 1 27 -4 q18 -5 41 -21 l28 100 q-28 28 -54 36 q-25 9 -39 8 l0 0 Z" /><glyph glyph-name="" unicode="å" d="M291 117 q-34 0 -52 15 q-18 15 -18 42 q-1 23 15 40 q17 16 60 17 q23 0 39 -3 q16 -4 35 -11 q-2 -57 -30 -79 q-27 -22 -49 -21 l0 0 ZM293 525 q-59 0 -112 -12 q-52 -13 -103 -39 l51 -113 q41 19 72 27 q32 9 72 9 q44 1 70 -20 q26 -22 27 -75 q-24 7 -55 10 q-31 3 -49 3 q-149 -5 -190 -59 q-41 -54 -36 -97 q1 -74 53 -119 q51 -45 136 -46 q42 0 81 18 q38 18 68 50 l4 -1 l20 -61 l146 0 l0 302 q-2 112 -70 167 q-69 56 -185 56 l0 0 ZM301 574 q47 1 78 33 q32 31 33 78 q-1 47 -33 78 q-31 32 -78 33 q-47 -1 -78 -33 q-32 -31 -33 -78 q1 -47 33 -78 q31 -32 78 -33 l0 0 ZM250 685 q1 22 15 36 q14 14 36 15 q22 -1 36 -15 q14 -14 15 -36 q-1 -22 -15 -36 q-14 -14 -36 -15 q-22 1 -36 15 q-14 14 -15 36 l0 0 Z" /><glyph glyph-name="" unicode="õ" d="M318 525 q-125 -1 -200 -69 q-76 -68 -78 -197 q2 -125 78 -194 q75 -70 200 -71 q125 1 201 71 q75 69 77 194 q-2 129 -77 197 q-76 68 -201 69 l0 0 ZM318 388 q46 -1 74 -35 q27 -34 28 -94 q-1 -59 -28 -93 q-28 -34 -74 -35 q-46 1 -73 35 q-28 34 -29 93 q1 60 29 94 q27 34 73 35 l0 0 ZM392 743 q-55 -2 -85 -17 q-29 -16 -60 -18 q-10 0 -27 4 q-18 5 -41 21 l-28 -100 q28 -28 54 -36 q25 -9 39 -8 q43 2 79 18 q35 15 66 17 q10 1 27 -4 q18 -5 41 -21 l28 100 q-28 28 -54 36 q-25 9 -39 8 l0 0 Z" /><glyph glyph-name="" unicode="ñ" d="M226 458 l-20 61 l-146 0 l0 -519 l176 0 l0 318 q18 25 44 43 q27 17 59 18 q30 1 52 -17 q23 -19 24 -73 l0 -289 l176 0 l0 279 q-3 147 -61 198 q-59 51 -131 48 q-48 0 -91 -18 q-44 -18 -78 -50 l-4 1 ZM441 743 q-55 -2 -85 -17 q-29 -16 -60 -18 q-10 0 -27 4 q-18 5 -41 21 l-28 -100 q28 -28 54 -36 q25 -9 39 -8 q43 2 79 18 q35 15 66 17 q10 1 27 -4 q18 -5 41 -21 l28 100 q-28 28 -54 36 q-25 9 -39 8 l0 0 Z" /><glyph glyph-name="" unicode="à" d="M235 118 l288 0 l53 -124 l190 6 l-327 748 l-122 0 l-327 -748 l193 -6 l52 124 ZM472 262 l-187 0 l91 237 l4 0 l92 -237 ZM428 959 l-184 0 l124 -163 l144 0 l-84 163 Z" /><glyph glyph-name="" unicode="ã" d="M235 118 l288 0 l53 -124 l190 6 l-327 748 l-122 0 l-327 -748 l193 -6 l52 124 ZM472 262 l-187 0 l91 237 l4 0 l92 -237 ZM452 952 q-55 -2 -85 -17 q-29 -16 -60 -18 q-10 0 -27 4 q-18 5 -41 21 l-28 -100 q28 -28 54 -36 q25 -9 39 -8 q43 2 79 18 q35 15 66 17 q10 1 27 -4 q18 -5 41 -21 l28 100 q-28 28 -54 36 q-25 9 -39 8 l0 0 Z" /><glyph glyph-name="" unicode="õ" d="M412 754 q-181 -3 -276 -107 q-95 -105 -96 -273 q1 -168 96 -272 q95 -105 276 -108 q181 3 276 108 q95 104 96 272 q-1 168 -96 273 q-95 104 -276 107 l0 0 ZM412 152 q-91 3 -137 67 q-46 64 -46 155 q0 91 46 155 q46 64 137 67 q92 -3 137 -67 q46 -64 46 -155 q0 -91 -46 -155 q-45 -64 -137 -67 l0 0 ZM486 952 q-55 -2 -85 -17 q-29 -16 -60 -18 q-10 0 -27 4 q-18 5 -41 21 l-28 -100 q28 -28 54 -36 q25 -9 39 -8 q43 2 79 18 q35 15 66 17 q10 1 27 -4 q18 -5 41 -21 l28 100 q-28 28 -54 36 q-25 9 -39 8 l0 0 Z" /><glyph glyph-name="" unicode="í" d="M236 0 l0 519 l-176 0 l0 -519 l176 0 ZM14 585 l144 0 l124 163 l-184 0 l-84 -163 Z" /><glyph glyph-name="" unicode="ì" d="M236 0 l0 519 l-176 0 l0 -519 l176 0 ZM198 748 l-184 0 l124 -163 l144 0 l-84 163 Z" /><glyph glyph-name="" unicode="î" d="M236 0 l0 519 l-176 0 l0 -519 l176 0 ZM-28 585 l114 0 l62 70 l62 -70 l114 0 l-104 163 l-144 0 l-104 -163 Z" /><glyph glyph-name="" unicode="ï" d="M236 0 l0 519 l-176 0 l0 -519 l176 0 ZM43 586 q37 1 61 25 q23 24 24 61 q-1 37 -26 59 q-25 22 -61 23 q-34 -1 -57 -25 q-23 -24 -24 -57 q1 -36 24 -60 q23 -25 59 -26 l0 0 ZM251 586 q37 1 61 25 q23 24 24 61 q-1 37 -26 59 q-25 22 -61 23 q-34 -1 -57 -25 q-23 -24 -24 -57 q1 -36 24 -60 q23 -25 59 -26 l0 0 Z" /><glyph glyph-name="" unicode="&#xf8ff;" d="M645 530 l82 55 q3 2 6 3 q2 1 6 1 q6 0 11 -4 q4 -3 4 -10 q0 -2 -1 -5 q-2 -4 -4 -6 l-35 -34 l117 0 q6 0 11 -5 q4 -4 4 -11 q0 -7 -4 -10 q-5 -4 -11 -4 l-81 0 l4 -13 l113 0 q7 0 10 -4 q4 -5 4 -10 q0 -8 -4 -12 q-3 -4 -10 -4 l-108 0 l0 -14 l85 0 q6 0 11 -4 q4 -3 4 -10 q0 -7 -4 -11 q-5 -5 -11 -5 l-90 0 l-4 -12 l70 0 q5 0 10 -5 q4 -4 4 -11 q0 -6 -4 -10 q-5 -5 -10 -5 l-177 0 l0 -285 l-167 0 l0 285 l-177 0 q-5 0 -10 5 q-4 4 -4 10 q0 7 4 11 q5 5 10 5 l70 0 l-5 12 l-89 0 q-6 0 -10 5 q-5 4 -5 11 q0 7 5 10 q4 4 10 4 l85 0 l0 14 l-108 0 q-6 0 -10 4 q-4 4 -4 12 q0 5 4 10 q4 4 10 4 l112 0 l5 13 l-81 0 q-6 0 -10 4 q-5 3 -5 10 q0 7 5 11 q4 5 10 5 l117 0 l-35 34 q-2 2 -4 6 q-1 3 -1 5 q0 7 5 10 q4 4 10 4 q8 0 12 -4 l82 -55 l171 0 ZM919 39 q5 0 8 -3 q3 -3 3 -8 q0 -5 -3 -8 q-3 -3 -8 -3 l-14 0 l0 22 l14 0 ZM146 376 q4 -175 121 -292 q117 -117 292 -121 q175 4 292 121 q117 117 121 292 q-4 175 -121 292 q-117 117 -292 121 q-175 -4 -292 -121 q-117 -117 -121 -292 l0 0 ZM863 17 q1 -23 16 -38 q15 -15 38 -16 q23 1 39 16 q15 15 16 38 q-1 23 -16 39 q-16 15 -39 16 q-23 -1 -38 -16 q-15 -16 -16 -39 l0 0 ZM871 17 q1 19 14 33 q13 13 32 14 q19 -1 33 -14 q13 -14 14 -33 q-1 -19 -14 -32 q-14 -13 -33 -14 q-19 1 -32 14 q-13 13 -14 32 l0 0 ZM930 -11 l11 0 l-16 20 q6 2 10 7 q4 5 4 12 q0 8 -6 14 q-6 6 -14 6 l-23 0 l0 -59 l9 0 l0 19 l10 0 l15 -19 Z" /></font>
</defs>
</svg>
